<svg xmlns="http://www.w3.org/2000/svg" width="24.361" height="22.114" viewBox="0 0 24.361 22.114">
  <path id="Icon_feather-phone-call" data-name="Icon feather-phone-call" d="M17.273,5.426A5.206,5.206,0,0,1,21.58,9.3M17.273,1.5c4.557.456,8.155,3.692,8.667,7.793m-1.09,7.833v2.945a1.879,1.879,0,0,1-.706,1.454,2.336,2.336,0,0,1-1.67.509,23.154,23.154,0,0,1-9.409-3.013,20.334,20.334,0,0,1-6.541-5.889,18.217,18.217,0,0,1-3.347-8.51,1.844,1.844,0,0,1,.561-1.5,2.3,2.3,0,0,1,1.608-.64H8.617A2.122,2.122,0,0,1,10.8,4.17a11.587,11.587,0,0,0,.763,2.758A1.824,1.824,0,0,1,11.07,9L9.685,10.245a16.682,16.682,0,0,0,6.541,5.889l1.385-1.247a2.359,2.359,0,0,1,2.3-.442,15.282,15.282,0,0,0,3.064.687A2.037,2.037,0,0,1,24.85,17.126Z" transform="translate(-2.417 -0.679)" fill="none" stroke="#333b3d" stroke-linecap="round" stroke-linejoin="round" stroke-width="1.5"/>
</svg>
