<svg xmlns="http://www.w3.org/2000/svg" width="26.162" height="19.13" viewBox="0 0 26.162 19.13">
  <path id="Icon_awesome-twitter" data-name="Icon awesome-twitter" d="M23.473,8.148c.017.209.017.418.017.628,0,6.382-5.4,13.735-15.256,13.735A16.394,16.394,0,0,1,0,20.344a12.309,12.309,0,0,0,1.295.06,11.516,11.516,0,0,0,6.657-2.062,5.333,5.333,0,0,1-5.013-3.348,7.494,7.494,0,0,0,1.013.075A6.265,6.265,0,0,0,5.362,14.9a4.986,4.986,0,0,1-4.3-4.738v-.06a5.859,5.859,0,0,0,2.424.613A4.719,4.719,0,0,1,1.1,6.7a4.433,4.433,0,0,1,.73-2.436A15.857,15.857,0,0,0,12.882,9.314a4.929,4.929,0,0,1-.133-1.106,5.113,5.113,0,0,1,5.362-4.827,5.641,5.641,0,0,1,3.918,1.524,11.293,11.293,0,0,0,3.4-1.166A4.943,4.943,0,0,1,23.074,6.4a11.7,11.7,0,0,0,3.088-.747,10.973,10.973,0,0,1-2.689,2.5Z" transform="translate(0 -3.381)" fill="#333b3d"/>
</svg>
