<svg xmlns="http://www.w3.org/2000/svg" width="26.289" height="24.411" viewBox="0 0 26.289 24.411">
  <path id="Icon_ionic-ios-star" data-name="Icon ionic-ios-star" d="M27.541,11.825H18.909L16.286,4A.951.951,0,0,0,14.5,4l-2.623,7.828H3.189a.942.942,0,0,0-.939.939.69.69,0,0,0,.018.158.9.9,0,0,0,.393.663l7.094,5L7.032,26.5a.942.942,0,0,0,.323,1.056.908.908,0,0,0,.528.229,1.15,1.15,0,0,0,.587-.211l6.924-4.935,6.924,4.935a1.1,1.1,0,0,0,.587.211.843.843,0,0,0,.522-.229A.93.93,0,0,0,23.75,26.5l-2.723-7.916,7.036-5.046.17-.147a.984.984,0,0,0,.305-.628A.994.994,0,0,0,27.541,11.825Z" transform="translate(-2.25 -3.375)" fill="#ffd707"/>
</svg>
