<svg xmlns="http://www.w3.org/2000/svg" width="152.473" height="24.411" viewBox="0 0 152.473 24.411">
  <g id="Group_43" data-name="Group 43" transform="translate(-755.051 -276)">
    <path id="Icon_ionic-ios-star-half" data-name="Icon ionic-ios-star-half" d="M27.541,11.825H18.909L16.286,4A.951.951,0,0,0,14.5,4l-2.623,7.828H3.189a.942.942,0,0,0-.939.939.69.69,0,0,0,.018.158.9.9,0,0,0,.393.663l7.094,5L7.032,26.5a.942.942,0,0,0,.323,1.056.908.908,0,0,0,.528.229,1.15,1.15,0,0,0,.587-.211l6.924-4.935,6.924,4.935a1.1,1.1,0,0,0,.587.211.843.843,0,0,0,.522-.229A.93.93,0,0,0,23.75,26.5l-2.723-7.916,7.036-5.046.17-.147a.984.984,0,0,0,.305-.628A.994.994,0,0,0,27.541,11.825ZM24.76,13.89l-4.683,3.362a1.648,1.648,0,0,0-.6,1.866l1.766,5.146a.236.236,0,0,1-.358.27L16.345,21.3l-.006-.006a2.188,2.188,0,0,1-.945-1.79V7.207a.114.114,0,0,1,.223-.035h0l1.737,5.176a1.641,1.641,0,0,0,1.555,1.121h5.71A.234.234,0,0,1,24.76,13.89Z" transform="translate(847.439 272.625)" fill="#ffd707"/>
    <path id="Icon_ionic-ios-star-outline" data-name="Icon ionic-ios-star-outline" d="M27.541,11.825H18.909L16.286,4A.951.951,0,0,0,14.5,4l-2.623,7.828H3.189a.942.942,0,0,0-.939.939.69.69,0,0,0,.018.158.9.9,0,0,0,.393.663l7.094,5L7.032,26.5a.942.942,0,0,0,.323,1.056.908.908,0,0,0,.528.229,1.15,1.15,0,0,0,.587-.211l6.924-4.935,6.924,4.935a1.1,1.1,0,0,0,.587.211.843.843,0,0,0,.522-.229A.93.93,0,0,0,23.75,26.5l-2.723-7.916,7.036-5.046.17-.147a.984.984,0,0,0,.305-.628A.994.994,0,0,0,27.541,11.825Zm-7.464,5.428a1.648,1.648,0,0,0-.6,1.866l1.766,5.146a.236.236,0,0,1-.358.27L16.345,21.3a1.64,1.64,0,0,0-.956-.305,1.609,1.609,0,0,0-.951.305L9.9,24.529a.235.235,0,0,1-.358-.27L11.3,19.113a1.654,1.654,0,0,0-.6-1.878L5.947,13.885a.236.236,0,0,1,.135-.428h5.792a1.641,1.641,0,0,0,1.555-1.121L15.165,7.16a.236.236,0,0,1,.446,0l1.737,5.176A1.641,1.641,0,0,0,18.9,13.456h5.71a.232.232,0,0,1,.135.422Z" transform="translate(878.985 272.625)" fill="#ffd707"/>
    <path id="Icon_ionic-ios-star" data-name="Icon ionic-ios-star" d="M27.541,11.825H18.909L16.286,4A.951.951,0,0,0,14.5,4l-2.623,7.828H3.189a.942.942,0,0,0-.939.939.69.69,0,0,0,.018.158.9.9,0,0,0,.393.663l7.094,5L7.032,26.5a.942.942,0,0,0,.323,1.056.908.908,0,0,0,.528.229,1.15,1.15,0,0,0,.587-.211l6.924-4.935,6.924,4.935a1.1,1.1,0,0,0,.587.211.843.843,0,0,0,.522-.229A.93.93,0,0,0,23.75,26.5l-2.723-7.916,7.036-5.046.17-.147a.984.984,0,0,0,.305-.628A.994.994,0,0,0,27.541,11.825Z" transform="translate(815.893 272.625)" fill="#ffd707"/>
    <path id="Icon_ionic-ios-star-2" data-name="Icon ionic-ios-star" d="M27.541,11.825H18.909L16.286,4A.951.951,0,0,0,14.5,4l-2.623,7.828H3.189a.942.942,0,0,0-.939.939.69.69,0,0,0,.018.158.9.9,0,0,0,.393.663l7.094,5L7.032,26.5a.942.942,0,0,0,.323,1.056.908.908,0,0,0,.528.229,1.15,1.15,0,0,0,.587-.211l6.924-4.935,6.924,4.935a1.1,1.1,0,0,0,.587.211.843.843,0,0,0,.522-.229A.93.93,0,0,0,23.75,26.5l-2.723-7.916,7.036-5.046.17-.147a.984.984,0,0,0,.305-.628A.994.994,0,0,0,27.541,11.825Z" transform="translate(784.347 272.625)" fill="#ffd707"/>
    <path id="Icon_ionic-ios-star-3" data-name="Icon ionic-ios-star" d="M27.541,11.825H18.909L16.286,4A.951.951,0,0,0,14.5,4l-2.623,7.828H3.189a.942.942,0,0,0-.939.939.69.69,0,0,0,.018.158.9.9,0,0,0,.393.663l7.094,5L7.032,26.5a.942.942,0,0,0,.323,1.056.908.908,0,0,0,.528.229,1.15,1.15,0,0,0,.587-.211l6.924-4.935,6.924,4.935a1.1,1.1,0,0,0,.587.211.843.843,0,0,0,.522-.229A.93.93,0,0,0,23.75,26.5l-2.723-7.916,7.036-5.046.17-.147a.984.984,0,0,0,.305-.628A.994.994,0,0,0,27.541,11.825Z" transform="translate(752.801 272.625)" fill="#ffd707"/>
  </g>
</svg>
