<svg xmlns="http://www.w3.org/2000/svg" width="25.866" height="25.866" viewBox="0 0 25.866 25.866">
  <path id="Icon_awesome-user-circle" data-name="Icon awesome-user-circle" d="M12.933.563A12.933,12.933,0,1,0,25.866,13.5,12.931,12.931,0,0,0,12.933.563Zm0,5.006a4.589,4.589,0,1,1-4.589,4.589A4.589,4.589,0,0,1,12.933,5.569Zm0,17.939a9.993,9.993,0,0,1-7.64-3.557,5.814,5.814,0,0,1,5.137-3.119,1.276,1.276,0,0,1,.37.057,6.9,6.9,0,0,0,2.133.36,6.878,6.878,0,0,0,2.133-.36,1.276,1.276,0,0,1,.37-.057,5.814,5.814,0,0,1,5.137,3.119A9.993,9.993,0,0,1,12.933,23.508Z" transform="translate(0 -0.563)" fill="#333b3d"/>
</svg>
