<svg xmlns="http://www.w3.org/2000/svg" width="613.397" height="487.033" viewBox="0 0 613.397 487.033">
  <g id="Layer_x0020_1" transform="translate(-59.29 -120.254)">
    <g id="_2137219008144" transform="translate(59.29 120.254)">
      <path id="Path_6548" data-name="Path 6548" d="M197.789,677.417c100.012,51.133,262.177,51.14,362.189,0s100.012-134.044,0-185.177-262.17-51.14-362.189,0S97.777,626.284,197.789,677.417Z" transform="translate(-79.934 -228.736)" fill="#f3f3f3"/>
      <path id="Path_6549" data-name="Path 6549" d="M755.3,676.177c6.458,3.725,19.145,2.443,28.337-2.861l53-30.78c9.2-5.311,11.4-12.64,4.933-16.378s-19.166-2.456-28.357,2.861l-52.955,30.793c-9.191,5.311-11.412,12.64-4.96,16.372Z" transform="translate(-284.401 -284.055)" fill="#ebeaea"/>
      <path id="Path_6550" data-name="Path 6550" d="M258.307,713.388,204.4,682.264l53.907-31.124Z" transform="translate(-106.473 -292.874)" fill="#ebeaea"/>
      <path id="Path_6551" data-name="Path 6551" d="M468.2,722.645,381.31,672.45l86.906-50.1Z" transform="translate(-163.997 -283.513)" fill="#ebeaea"/>
      <path id="Path_6552" data-name="Path 6552" d="M138.205,596.825c.148-12.613-8.658-38.837-21.541-55.364s-33.317-28.748-47.988-23.923c-13.666,4.488-12.41,22.364,3.961,34.39s41.017,27.2,48.029,47.732l14.934,25.28,2.6-28.121Z" transform="translate(-59.296 -249.087)" fill="#5ebdb0"/>
      <path id="Path_6553" data-name="Path 6553" d="M130.263,615.922l-9.61-16.257C113.642,579.122,89,563.959,72.625,551.933,63.717,545.387,59.29,537.12,59.29,530.21c.007-5.79,3.138-10.622,9.367-12.674A22.177,22.177,0,0,1,75.6,516.47c13.686,0,30.091,10.939,41.044,24.99a107.876,107.876,0,0,1,13.612,23.977v50.485Z" transform="translate(-59.29 -249.086)" fill="#039"/>
      <path id="Path_6554" data-name="Path 6554" d="M146.221,618.218a.938.938,0,0,1-.823-.749c-7.923-43.143-42.326-78.545-63.071-86.529a.922.922,0,0,1,.661-1.721c21.143,8.132,56.181,44.115,64.225,87.919a.92.92,0,0,1-.736,1.073l-.25.014Z" transform="translate(-66.589 -253.211)" fill="#fefefe"/>
      <path id="Path_6555" data-name="Path 6555" d="M135.855,667.781c-1.944-7.113-10.46-18.909-24.342-28.742-15.359-10.872-34.9-16.028-39.323-24.4-5.311-10.062,3.226-19.4,19.118-17.235s43.6,24.207,47.684,56.95l-3.131,13.429Z" transform="translate(-62.972 -275.301)" fill="#039"/>
      <path id="Path_6556" data-name="Path 6556" d="M145.323,664.554a.93.93,0,0,1-.79-.621C131.779,626.9,103.8,613.616,90.789,611.767a.929.929,0,0,1-.783-1.039.9.9,0,0,1,1.039-.783c14.388,2.045,42.2,15.589,55.229,53.387a.927.927,0,0,1-.574,1.174.842.842,0,0,1-.385.047Z" transform="translate(-69.275 -279.477)" fill="#fefefe"/>
      <path id="Path_6557" data-name="Path 6557" d="M868.779,544.487s1.768-26.582,17.431-46.321,14.7-27.858,3.9-31.846-35.895,19.8-30.307,51.646,8.975,26.515,8.975,26.515Z" transform="translate(-319.321 -232.637)" fill="#5ebdb0"/>
      <path id="Path_6558" data-name="Path 6558" d="M868.161,544.827c-1.215,0-4.171-3-8.348-26.852a52.485,52.485,0,0,1-.8-9.083c-.014-24.929,18.012-43,28.505-43a7.433,7.433,0,0,1,2.6.439c5.1,1.876,8,4.677,8,9.185.007,5.048-3.631,12.235-11.9,22.655-15.663,19.732-17.431,46.321-17.431,46.321a.771.771,0,0,1-.621.337Z" transform="translate(-319.324 -232.639)" fill="#039"/>
      <path id="Path_6559" data-name="Path 6559" d="M866.046,531.228a.625.625,0,0,1-.621-.58c-1.829-29.275,18.848-53.3,26.589-58.732a.616.616,0,0,1,.857.148.625.625,0,0,1-.148.864c-7.585,5.331-27.858,28.89-26.062,57.645a.617.617,0,0,1-.574.655h-.041Z" transform="translate(-321.372 -234.562)" fill="#fefefe"/>
      <path id="Path_6560" data-name="Path 6560" d="M864.33,587.052a140.346,140.346,0,0,0,21.568,5.2c12.134,1.917,17.485-3.88,17.485-3.88s-4.778-11.378-11.668-14.57c0,0,11.682,2.382,21.055,8.638,0,0,7.41.115,10.352-11.2,0,0-4.386-6.8-19.112-10.48,0,0,8.962-2.254,21.872,1.039.965.385,5.1-14.232,6.344-20.981s-1.464-6.674-6.721-8.078-22.668-5.318-25.961-2.423-4.96,12.782-4.96,12.782a23.336,23.336,0,0,1-.493-12.532s-4.731-1.849-12.073.29c-6.006,1.748-6.3,5.837-6.026,10.453a45.183,45.183,0,0,0,2.6,11.729s-4.683-6-4.825-19.01c0,0-12.289,6.107-14.388,18.3-1.134,6.593-2.74,25.968,4.96,34.727Z" transform="translate(-319.13 -253.25)" fill="#039"/>
      <path id="Path_6561" data-name="Path 6561" d="M870.282,588.132a.69.69,0,0,0,.614-.385c9.785-20.34,46.186-43.973,59.224-46.51a.683.683,0,0,0,.54-.8.692.692,0,0,0-.8-.54c-13.254,2.578-50.249,26.6-60.189,47.253a.685.685,0,0,0,.317.911l.3.067Z" transform="translate(-322.767 -256.699)" fill="#fefefe"/>
      <path id="Path_6562" data-name="Path 6562" d="M168.022,530.555c-1.5,0-2.4-1.242-2.4-3.327V303.989L439,146.15V368.484a11.852,11.852,0,0,1-5.358,9.279L170.2,529.86a4.515,4.515,0,0,1-2.18.682Z" transform="translate(-93.864 -128.674)" fill="#fafafa"/>
      <path id="Path_6563" data-name="Path 6563" d="M439.4,144.167,164.47,302.9V526.581c0,2.6,1.3,4.1,3.179,4.1a5.212,5.212,0,0,0,2.571-.783L433.659,377.8a12.717,12.717,0,0,0,5.75-9.954V144.16Zm-1.552,2.686V367.844a11.17,11.17,0,0,1-4.974,8.611l-263.439,152.1a3.716,3.716,0,0,1-1.788.574c-1.464,0-1.626-1.782-1.626-2.551V303.788L437.849,146.846Z" transform="translate(-93.49 -128.027)" fill="#dfdfe0"/>
      <path id="Path_6564" data-name="Path 6564" d="M164.46,302.907v37.346l274.931-158.73.007-37.353Z" transform="translate(-93.487 -128.03)" fill="#039"/>
      <path id="Path_6565" data-name="Path 6565" d="M196.407,357.388v5.358c0,1.093.776,1.539,1.721.992l84.531-48.8V305.6l-84.531,48.8a3.817,3.817,0,0,0-1.728,2.99Z" transform="translate(-103.872 -180.52)" fill="#fafafa"/>
      <path id="Path_6566" data-name="Path 6566" d="M333.283,297.737c.952-.547,1.728-.1,1.728.992v5.358a3.827,3.827,0,0,1-1.728,2.99l-9.063,5.23v-9.34Z" transform="translate(-145.434 -177.888)" fill="#4b5e67"/>
      <path id="Path_6567" data-name="Path 6567" d="M164.46,283.091a12.689,12.689,0,0,1,5.75-9.954l263.439-152.1c3.172-1.836,5.75-.351,5.75,3.313v12.039L164.467,295.124V283.084Z" transform="translate(-93.487 -120.254)" fill="#4b5e67"/>
      <path id="Path_6568" data-name="Path 6568" d="M525.289,151.733a5.979,5.979,0,0,0-2.7,4.67c0,1.721,1.208,2.416,2.7,1.559a5.979,5.979,0,0,0,2.7-4.67C527.989,151.571,526.781,150.876,525.289,151.733Z" transform="translate(-209.935 -130.37)" fill="#5ebdb0"/>
      <path id="Path_6569" data-name="Path 6569" d="M537.939,144.413a5.95,5.95,0,0,0-2.7,4.67c0,1.721,1.208,2.416,2.7,1.559a5.961,5.961,0,0,0,2.693-4.67C540.632,144.251,539.424,143.556,537.939,144.413Z" transform="translate(-214.048 -127.99)" fill="#5ebdb0"/>
      <path id="Path_6570" data-name="Path 6570" d="M550.589,137.1a5.95,5.95,0,0,0-2.7,4.67c0,1.721,1.208,2.416,2.7,1.559a5.972,5.972,0,0,0,2.693-4.67C553.282,136.941,552.074,136.246,550.589,137.1Z" transform="translate(-218.161 -125.613)" fill="#5ebdb0"/>
      <path id="Path_6571" data-name="Path 6571" d="M438.579,249.584c-1.93,0-3.259-1.545-3.259-4.211a13.04,13.04,0,0,1,5.891-10.21,5.319,5.319,0,0,1,2.632-.8c1.937,0,3.259,1.545,3.259,4.211a13.017,13.017,0,0,1-5.891,10.2A5.354,5.354,0,0,1,438.579,249.584Z" transform="translate(-181.558 -157.356)" fill="#fff"/>
      <path id="Path_6572" data-name="Path 6572" d="M398.639,272.648c-1.93,0-3.259-1.545-3.259-4.211a13.017,13.017,0,0,1,5.891-10.2,5.319,5.319,0,0,1,2.632-.8c1.937,0,3.259,1.539,3.259,4.2a13.04,13.04,0,0,1-5.891,10.21,5.339,5.339,0,0,1-2.632.8Z" transform="translate(-168.572 -164.857)" fill="#fff"/>
      <path id="Path_6573" data-name="Path 6573" d="M478.52,226.528c-1.93,0-3.259-1.539-3.259-4.211a13.017,13.017,0,0,1,5.891-10.2,5.319,5.319,0,0,1,2.632-.8c1.937,0,3.259,1.545,3.259,4.211a13.017,13.017,0,0,1-5.891,10.2A5.339,5.339,0,0,1,478.52,226.528Z" transform="translate(-194.545 -149.861)" fill="#fff"/>
      <path id="Path_6574" data-name="Path 6574" d="M518.469,203.424c-1.937,0-3.26-1.545-3.26-4.211a13.017,13.017,0,0,1,5.891-10.2,5.354,5.354,0,0,1,2.632-.81c1.93,0,3.259,1.545,3.259,4.211a13.04,13.04,0,0,1-5.891,10.21,5.319,5.319,0,0,1-2.632.8Z" transform="translate(-207.535 -142.347)" fill="#fff"/>
      <path id="Path_6575" data-name="Path 6575" d="M202.163,420.865l63.982-36.934c3.172-1.836,5.743-.351,5.743,3.313v61.424a12.71,12.71,0,0,1-5.743,9.954L202.17,495.563c-3.172,1.836-5.75.351-5.75-3.313V430.826a12.7,12.7,0,0,1,5.743-9.954Z" transform="translate(-103.879 -205.734)" fill="#dfdfe0"/>
      <path id="Path_6576" data-name="Path 6576" d="M337.97,322.967l134.051-77.4c3.172-1.829,5.75-.351,5.75,3.32v61.424a12.7,12.7,0,0,1-5.75,9.954l-134.051,77.4c-3.172,1.836-5.75.351-5.75-3.32V332.914a12.688,12.688,0,0,1,5.75-9.954Z" transform="translate(-148.035 -160.744)" fill="#dfdfe0"/>
      <path id="Path_6577" data-name="Path 6577" d="M202.163,548.714l101.713-58.725c3.172-1.836,5.75-.533,5.75,2.909s-2.571,7.707-5.743,9.542L202.17,561.165c-3.172,1.836-5.75.533-5.75-2.9s2.571-7.713,5.75-9.542Z" transform="translate(-103.879 -240.205)" fill="#dfdfe0"/>
      <path id="Path_6578" data-name="Path 6578" d="M202.163,580.994l101.713-58.725c3.172-1.836,5.75-.533,5.75,2.909s-2.571,7.713-5.743,9.542L202.17,593.445c-3.172,1.836-5.75.533-5.75-2.909s2.571-7.714,5.75-9.542Z" transform="translate(-103.879 -250.701)" fill="#dfdfe0"/>
      <path id="Path_6579" data-name="Path 6579" d="M202.163,613.264l101.713-58.725c3.172-1.836,5.75-.533,5.75,2.909s-2.571,7.713-5.743,9.542L202.17,625.715c-3.172,1.829-5.75.526-5.75-2.909s2.571-7.707,5.75-9.542Z" transform="translate(-103.879 -261.194)" fill="#dfdfe0"/>
      <path id="Path_6580" data-name="Path 6580" d="M276.3,480.166a7.625,7.625,0,0,1,3.448-5.972L456.129,372.353a7.62,7.62,0,0,1,6.9,0l3.887,2.241a7.625,7.625,0,0,1,3.448,5.972v135.2a7.653,7.653,0,0,1-3.448,5.972L290.522,623.583a7.662,7.662,0,0,1-6.9,0l-3.887-2.247a7.643,7.643,0,0,1-3.448-5.972V480.159Z" transform="translate(-129.849 -201.957)" fill="#039"/>
      <path id="Path_6581" data-name="Path 6581" d="M277.79,476.772h0a7.578,7.578,0,0,1,1.7-2.058A7.723,7.723,0,0,0,277.79,476.772ZM468.258,375.221a6.124,6.124,0,0,0-.857-.621l-1.356-.783,1.363.783A6.491,6.491,0,0,1,468.258,375.221Zm-9.8-3.529a7.973,7.973,0,0,1,1.613-.162,7.831,7.831,0,0,1,1.323.108,8.6,8.6,0,0,0-1.323-.108A8.023,8.023,0,0,0,458.459,371.692Z" transform="translate(-130.337 -201.958)" fill="#fcfbfb"/>
      <path id="Path_6582" data-name="Path 6582" d="M287.575,482.4l-9.785-5.642a7.7,7.7,0,0,1,1.7-2.058,4.522,4.522,0,0,1,.749-.52L456.63,372.347a6,6,0,0,1,1.836-.675,7.971,7.971,0,0,1,1.613-.162,8.6,8.6,0,0,1,1.323.108,6.343,6.343,0,0,1,2.119.722l2.537,1.451,1.356.783a5.978,5.978,0,0,1,.857.621,7.916,7.916,0,0,1,1.579,1.957L287.589,482.387Z" transform="translate(-130.337 -201.951)" fill="#039"/>
      <path id="Path_6583" data-name="Path 6583" d="M278.22,712.578a7.579,7.579,0,0,1-1.93-4.683V656.107l.007-.007v51.794a7.68,7.68,0,0,0,1.923,4.683Z" transform="translate(-129.849 -294.487)" fill="#d4d3d2"/>
      <path id="Path_6584" data-name="Path 6584" d="M276.29,642.323V619.21h.007v23.107Z" transform="translate(-129.849 -282.492)" fill="#e0e0e0"/>
      <path id="Path_6585" data-name="Path 6585" d="M276.29,655.245v-1.788l.007-.007v1.8Z" transform="translate(-129.849 -293.626)" fill="#cac9c9"/>
      <path id="Path_6586" data-name="Path 6586" d="M276.29,576.933V567.6h.007v9.333Zm0-21.784v-9.333h.007v9.333Zm0-21.784v-2.5a7.042,7.042,0,0,1,1.012-3.388h0a7.056,7.056,0,0,0-1.006,3.394v2.49Z" transform="translate(-129.849 -252.666)" fill="#e0e0e0"/>
      <path id="Path_6587" data-name="Path 6587" d="M276.29,548.651V536.2h.007v12.451Z" transform="translate(-129.849 -255.501)" fill="#cac9c9"/>
      <path id="Path_6588" data-name="Path 6588" d="M276.29,580.931V568.48h.007v12.451Z" transform="translate(-129.849 -265.997)" fill="#cac9c9"/>
      <path id="Path_6589" data-name="Path 6589" d="M276.29,613.211V600.76h.007v12.451Z" transform="translate(-129.849 -276.493)" fill="#cac9c9"/>
      <path id="Path_6590" data-name="Path 6590" d="M287.067,675.106a7.845,7.845,0,0,1-1.06-.068,7.021,7.021,0,0,1-1.417-.324,5.49,5.49,0,0,1-.945-.425l-3.887-2.247a5.9,5.9,0,0,1-1.525-1.289,7.625,7.625,0,0,1-1.923-4.683V530.864a7.057,7.057,0,0,1,1.006-3.394l9.785,5.642,1.8,1.046a3.027,3.027,0,0,0-1.8,2.936V672.3a2.385,2.385,0,0,0,1.06,2.268h0a1.818,1.818,0,0,0,.817.189,2.364,2.364,0,0,0,.83-.155,3.628,3.628,0,0,1-.4.162c-.209.067-.439.128-.668.182a8.5,8.5,0,0,1-1.66.162Z" transform="translate(-129.855 -252.662)" fill="#039"/>
      <path id="Path_6591" data-name="Path 6591" d="M562.657,380.066c0-.007-.007-.013-.007-.02l.466-.715-.459.729Z" transform="translate(-222.96 -204.494)" fill="#c8c8c9"/>
      <path id="Path_6592" data-name="Path 6592" d="M293.349,626.739h0a2.385,2.385,0,0,1-1.06-2.267v-2.247l69.921-106.072L292.29,485.285,373.973,515.8a13.272,13.272,0,0,0,15.758-5.19l13.119-20.1L474.741,380.38c0,.007.007.014.007.02L405.461,491.277l70.1,27.432a7.189,7.189,0,0,1-1.073,3.442l-69.219-30.557-15.245,24.4a13.291,13.291,0,0,1-11.27,6.242,13.051,13.051,0,0,1-5.352-1.141L362.541,516.3l-69.2,110.438Z" transform="translate(-135.051 -204.835)" fill="#e48325"/>
      <path id="Path_6593" data-name="Path 6593" d="M507.96,261.862V572.277c0,3.664,2.571,5.149,5.75,3.32l139.45-80.509a12.717,12.717,0,0,0,5.75-9.954V174.713c0-3.664-2.571-5.149-5.75-3.32L513.71,251.909a12.706,12.706,0,0,0-5.75,9.954Z" transform="translate(-205.178 -136.627)" fill="#fafafa"/>
      <path id="Path_6594" data-name="Path 6594" d="M507.586,261.492h-.776V571.906a5.528,5.528,0,0,0,1.053,3.509,3.625,3.625,0,0,0,2.9,1.37,5.991,5.991,0,0,0,2.949-.884L653.17,495.393a13.486,13.486,0,0,0,6.134-10.622V174.349a5.529,5.529,0,0,0-1.053-3.509,3.624,3.624,0,0,0-2.9-1.37,5.977,5.977,0,0,0-2.956.891h0L512.944,250.87A13.484,13.484,0,0,0,506.81,261.5h1.552a11.923,11.923,0,0,1,5.358-9.279L653.177,171.71h0a4.462,4.462,0,0,1,2.173-.682,2.045,2.045,0,0,1,1.694.79,4.033,4.033,0,0,1,.715,2.537V484.777a11.951,11.951,0,0,1-5.358,9.279l-139.45,80.509a4.461,4.461,0,0,1-2.173.682,2.059,2.059,0,0,1-1.694-.783,4.056,4.056,0,0,1-.715-2.544V261.505h-.776Z" transform="translate(-204.804 -136.257)" fill="#dfdfe0"/>
      <path id="Path_6595" data-name="Path 6595" d="M519.93,308.711a3.167,3.167,0,0,1,1.491-2.423l15.886-9.164c.823-.472,1.5-.162,1.5.7a3.152,3.152,0,0,1-1.5,2.416l-15.886,9.171C520.6,309.885,519.93,309.568,519.93,308.711Z" transform="translate(-209.07 -177.692)" fill="#4b5e67"/>
      <path id="Path_6596" data-name="Path 6596" d="M519.93,317.869a3.156,3.156,0,0,1,1.491-2.423l15.886-9.164c.823-.479,1.5-.169,1.5.7a3.152,3.152,0,0,1-1.5,2.416l-15.886,9.171C520.6,319.036,519.93,318.732,519.93,317.869Z" transform="translate(-209.07 -180.669)" fill="#4b5e67"/>
      <path id="Path_6597" data-name="Path 6597" d="M519.93,327.027a3.156,3.156,0,0,1,1.491-2.423l15.886-9.171c.823-.472,1.5-.162,1.5.7a3.163,3.163,0,0,1-1.5,2.416l-15.886,9.171c-.823.472-1.491.162-1.491-.7Z" transform="translate(-209.07 -183.646)" fill="#4b5e67"/>
      <path id="Path_6598" data-name="Path 6598" d="M699.162,219.132c-2,1.154-3.624.216-3.624-2.092a8.023,8.023,0,0,1,3.624-6.283c2-1.154,3.624-.216,3.624,2.092A8.034,8.034,0,0,1,699.162,219.132Zm8.4-7.794v-2.477a.161.161,0,0,0-.243-.162l-1.91.864a.225.225,0,0,1-.317-.148,4.722,4.722,0,0,0-.425-.952.538.538,0,0,1-.027-.466l1.276-2.571a.284.284,0,0,0-.115-.371l-1.383-.8a.287.287,0,0,0-.378.088l-1.586,2.389a.512.512,0,0,1-.412.2,4.268,4.268,0,0,0-1.033.108.232.232,0,0,1-.29-.2l-.209-2.085a.163.163,0,0,0-.263-.135l-2.146,1.235a.587.587,0,0,0-.256.4l-.216,2.389a.781.781,0,0,1-.223.445,13.3,13.3,0,0,0-1.194,1.262.418.418,0,0,1-.425.121l-1.377-.479a.337.337,0,0,0-.385.142l-1.579,2.733a.329.329,0,0,0,.067.4l1.107.952a.4.4,0,0,1,.108.425,14.208,14.208,0,0,0-.5,1.667.834.834,0,0,1-.277.418l-1.964,1.383a.577.577,0,0,0-.223.418v2.477a.157.157,0,0,0,.243.155l1.91-.864a.225.225,0,0,1,.317.148,4.5,4.5,0,0,0,.425.945.539.539,0,0,1,.034.466l-1.275,2.564a.294.294,0,0,0,.115.378l1.383.8a.287.287,0,0,0,.378-.088l1.586-2.389a.525.525,0,0,1,.418-.2,4.268,4.268,0,0,0,1.033-.108.232.232,0,0,1,.29.2l.209,2.085a.159.159,0,0,0,.256.135L700.228,224a.587.587,0,0,0,.256-.4l.216-2.389a.8.8,0,0,1,.223-.445,13.235,13.235,0,0,0,1.188-1.262.418.418,0,0,1,.425-.121l1.377.479a.333.333,0,0,0,.385-.142l1.579-2.733a.338.338,0,0,0-.067-.4l-1.107-.952a.4.4,0,0,1-.108-.425,11.942,11.942,0,0,0,.5-1.66.767.767,0,0,1,.277-.418l1.964-1.377a.591.591,0,0,0,.223-.425Z" transform="translate(-264.616 -147.554)" fill="#404d55"/>
      <path id="Path_6599" data-name="Path 6599" d="M605.584,303.488c16.3-9.407,29.5-1.782,29.5,17.033s-13.207,41.692-29.5,51.1-29.5,1.782-29.5-17.033S589.287,312.9,605.584,303.488Z" transform="translate(-227.327 -178.523)" fill="#039"/>
      <path id="Path_6600" data-name="Path 6600" d="M614.876,326.741c5.284-3.05,9.569-.574,9.569,5.527s-4.285,13.524-9.569,16.581-9.576.574-9.576-5.527S609.585,329.791,614.876,326.741Z" transform="translate(-236.828 -186.97)" fill="#fff"/>
      <path id="Path_6601" data-name="Path 6601" d="M629.673,370.18c0-10.028-7.039-14.1-15.724-9.077l-5.426,3.138c-8.685,5.014-15.724,17.209-15.724,27.237v2.733a15.855,15.855,0,0,0,5.068.783c3.961.007,8.422-1.3,13.153-4.029,7.079-4.09,13.571-10.717,18.653-18.457v-2.321Z" transform="translate(-232.764 -197.868)" fill="#fff"/>
      <path id="Path_6602" data-name="Path 6602" d="M578.945,432.855,632.2,402.109c1.586-.918,2.875-.27,2.875,1.451a6.175,6.175,0,0,1-2.875,4.771l-53.259,30.753c-1.586.918-2.875.263-2.875-1.451a6.165,6.165,0,0,1,2.875-4.771Z" transform="translate(-227.324 -211.765)" fill="#039"/>
      <path id="Path_6603" data-name="Path 6603" d="M570.485,462.243l64.691-37.393c1.586-.918,2.875-.263,2.875,1.451a6.165,6.165,0,0,1-2.875,4.771l-64.691,37.393c-1.586.918-2.875.263-2.875-1.451A6.165,6.165,0,0,1,570.485,462.243Z" transform="translate(-224.573 -219.16)" fill="#4b5e67"/>
      <path id="Path_6604" data-name="Path 6604" d="M669.448,464.541l18.113-10.46c.952-.547,1.728-.3,1.728.56a3.456,3.456,0,0,1-1.728,2.551l-18.113,10.46c-.952.547-1.728.3-1.728-.56A3.456,3.456,0,0,1,669.448,464.541Z" transform="translate(-257.125 -228.705)" fill="#404d55"/>
      <path id="Path_6605" data-name="Path 6605" d="M534.795,530.34l26.6-15.359c1.586-.918,2.875-.175,2.875,1.66V534.9a6.359,6.359,0,0,1-2.875,4.98l-26.6,15.359c-1.586.911-2.875.175-2.875-1.66V535.32a6.337,6.337,0,0,1,2.875-4.974Z" transform="translate(-212.968 -248.473)" fill="#039"/>
      <path id="Path_6606" data-name="Path 6606" d="M541.631,536.531l18.12-10.46c.951-.547,1.728-.3,1.728.56a3.427,3.427,0,0,1-1.728,2.551l-18.12,10.46c-.952.547-1.721.3-1.721-.56A3.477,3.477,0,0,1,541.631,536.531Z" transform="translate(-215.566 -252.113)" fill="#fafafa"/>
      <path id="Path_6607" data-name="Path 6607" d="M539.91,548.767v5.352c0,1.1.776,1.545,1.721,1l18.12-10.46a3.817,3.817,0,0,0,1.728-2.99v-5.352c0-1.1-.769-1.545-1.728-1l-18.12,10.46A3.81,3.81,0,0,0,539.91,548.767Z" transform="translate(-215.566 -255.138)" fill="#fafafa"/>
      <path id="Path_6608" data-name="Path 6608" d="M598.7,493.443l26.6-15.353c1.586-.918,2.875-.175,2.875,1.66v18.261a6.347,6.347,0,0,1-2.875,4.974l-26.6,15.359c-1.586.918-2.875.175-2.875-1.66V498.417a6.347,6.347,0,0,1,2.875-4.974Z" transform="translate(-233.749 -236.478)" fill="#039"/>
      <path id="Path_6609" data-name="Path 6609" d="M605.538,499.631l18.113-10.46c.952-.547,1.728-.3,1.728.56a3.468,3.468,0,0,1-1.728,2.551l-18.113,10.46c-.952.547-1.728.3-1.728-.56A3.438,3.438,0,0,1,605.538,499.631Z" transform="translate(-236.344 -240.115)" fill="#fafafa"/>
      <path id="Path_6610" data-name="Path 6610" d="M603.82,511.867v5.358c0,1.1.769,1.545,1.728,1l18.113-10.46a3.817,3.817,0,0,0,1.728-2.99v-5.358c0-1.1-.776-1.545-1.728-1l-18.113,10.46A3.817,3.817,0,0,0,603.82,511.867Z" transform="translate(-236.347 -243.14)" fill="#fafafa"/>
      <path id="Path_6611" data-name="Path 6611" d="M662.6,456.55l26.6-15.359c1.586-.918,2.875-.175,2.875,1.66v18.261a6.337,6.337,0,0,1-2.875,4.974l-26.6,15.359c-1.586.918-2.875.175-2.875-1.66V461.523A6.337,6.337,0,0,1,662.6,456.55Z" transform="translate(-254.527 -224.48)" fill="#039"/>
      <path id="Path_6612" data-name="Path 6612" d="M669.448,462.741l18.113-10.46c.952-.547,1.728-.3,1.728.56a3.456,3.456,0,0,1-1.728,2.551l-18.113,10.46c-.952.547-1.728.3-1.728-.56A3.445,3.445,0,0,1,669.448,462.741Z" transform="translate(-257.125 -228.12)" fill="#fafafa"/>
      <path id="Path_6613" data-name="Path 6613" d="M667.72,474.975v5.358c0,1.1.776,1.545,1.728.992l18.113-10.46a3.817,3.817,0,0,0,1.728-2.99v-5.358c0-1.1-.776-1.545-1.728-.992l-18.113,10.46A3.817,3.817,0,0,0,667.72,474.975Z" transform="translate(-257.125 -231.143)" fill="#fafafa"/>
      <path id="Path_6614" data-name="Path 6614" d="M537.67,569.847l107.1-61.836c3.172-1.829,5.75-.526,5.75,2.909s-2.571,7.707-5.75,9.542L537.67,582.3c-3.172,1.829-5.75.533-5.75-2.909S534.491,571.676,537.67,569.847Z" transform="translate(-212.968 -246.066)" fill="#dfdfe0"/>
      <path id="Path_6615" data-name="Path 6615" d="M537.67,606.745l107.1-61.836c3.172-1.836,5.75-.533,5.75,2.909s-2.571,7.713-5.75,9.542L537.67,619.2c-3.172,1.836-5.75.533-5.75-2.909S534.491,608.574,537.67,606.745Z" transform="translate(-212.968 -258.062)" fill="#dfdfe0"/>
      <path id="Path_6616" data-name="Path 6616" d="M590.715,642.642l37.38-21.581c1.586-.918,2.875-.175,2.875,1.66V634.76a6.337,6.337,0,0,1-2.875,4.974l-37.38,21.581c-1.586.918-2.875.175-2.875-1.66V647.616A6.337,6.337,0,0,1,590.715,642.642Z" transform="translate(-231.151 -282.966)" fill="#039"/>
      <path id="Path_6617" data-name="Path 6617" d="M542.613,602.57a5.961,5.961,0,0,0-2.693,4.67c0,1.714,1.208,2.416,2.693,1.552a5.95,5.95,0,0,0,2.7-4.67c0-1.721-1.208-2.416-2.7-1.559Z" transform="translate(-215.57 -276.96)" fill="#fafafa"/>
      <path id="Path_6618" data-name="Path 6618" d="M555.259,595.255a5.95,5.95,0,0,0-2.7,4.67c0,1.721,1.208,2.416,2.7,1.559a5.961,5.961,0,0,0,2.693-4.67c0-1.714-1.208-2.416-2.693-1.552Z" transform="translate(-219.68 -274.585)" fill="#fafafa"/>
      <path id="Path_6619" data-name="Path 6619" d="M567.913,587.933a5.972,5.972,0,0,0-2.693,4.67c0,1.721,1.208,2.416,2.693,1.559a5.972,5.972,0,0,0,2.693-4.67C570.605,587.771,569.4,587.076,567.913,587.933Z" transform="translate(-223.796 -272.203)" fill="#fafafa"/>
      <path id="Path_6620" data-name="Path 6620" d="M580.569,580.623a5.979,5.979,0,0,0-2.7,4.67c0,1.721,1.208,2.416,2.7,1.559a5.961,5.961,0,0,0,2.7-4.67C583.269,580.461,582.061,579.766,580.569,580.623Z" transform="translate(-227.909 -269.826)" fill="#fafafa"/>
      <path id="Path_6621" data-name="Path 6621" d="M593.219,573.3a5.979,5.979,0,0,0-2.7,4.67c0,1.721,1.208,2.416,2.7,1.552a5.968,5.968,0,0,0,2.7-4.67c0-1.721-1.208-2.416-2.7-1.559Z" transform="translate(-232.023 -267.443)" fill="#fafafa"/>
      <path id="Path_6622" data-name="Path 6622" d="M605.873,565.993a5.972,5.972,0,0,0-2.693,4.67c0,1.721,1.208,2.416,2.693,1.559a5.961,5.961,0,0,0,2.693-4.67C608.565,565.831,607.357,565.136,605.873,565.993Z" transform="translate(-236.139 -265.069)" fill="#fafafa"/>
      <path id="Path_6623" data-name="Path 6623" d="M618.533,558.673a5.961,5.961,0,0,0-2.693,4.67c0,1.721,1.208,2.416,2.693,1.559a5.979,5.979,0,0,0,2.7-4.67C621.232,558.511,620.024,557.816,618.533,558.673Z" transform="translate(-240.255 -262.689)" fill="#fafafa"/>
      <path id="Path_6624" data-name="Path 6624" d="M542.613,639.513a5.972,5.972,0,0,0-2.693,4.67c0,1.721,1.208,2.416,2.693,1.559a5.95,5.95,0,0,0,2.7-4.67C545.312,639.351,544.1,638.656,542.613,639.513Z" transform="translate(-215.57 -288.975)" fill="#fafafa"/>
      <path id="Path_6625" data-name="Path 6625" d="M555.259,632.193a5.95,5.95,0,0,0-2.7,4.67c0,1.721,1.208,2.416,2.7,1.559a5.972,5.972,0,0,0,2.693-4.67C557.952,632.031,556.744,631.336,555.259,632.193Z" transform="translate(-219.68 -286.595)" fill="#fafafa"/>
      <path id="Path_6626" data-name="Path 6626" d="M567.913,624.884a5.961,5.961,0,0,0-2.693,4.67c0,1.721,1.208,2.416,2.693,1.559a5.972,5.972,0,0,0,2.693-4.67c0-1.721-1.208-2.416-2.693-1.552Z" transform="translate(-223.796 -284.219)" fill="#fafafa"/>
      <path id="Path_6627" data-name="Path 6627" d="M580.569,617.563a5.979,5.979,0,0,0-2.7,4.67c0,1.721,1.208,2.416,2.7,1.559a5.96,5.96,0,0,0,2.7-4.67C583.269,617.4,582.061,616.706,580.569,617.563Z" transform="translate(-227.909 -281.837)" fill="#fafafa"/>
      <path id="Path_6628" data-name="Path 6628" d="M593.219,610.24a5.979,5.979,0,0,0-2.7,4.67c0,1.714,1.208,2.416,2.7,1.552a5.968,5.968,0,0,0,2.7-4.67c0-1.721-1.208-2.416-2.7-1.559Z" transform="translate(-232.023 -279.454)" fill="#fafafa"/>
      <path id="Path_6629" data-name="Path 6629" d="M605.873,602.933a5.961,5.961,0,0,0-2.693,4.67c0,1.721,1.208,2.416,2.693,1.559a5.961,5.961,0,0,0,2.693-4.67C608.565,602.771,607.357,602.076,605.873,602.933Z" transform="translate(-236.139 -277.08)" fill="#fafafa"/>
      <path id="Path_6630" data-name="Path 6630" d="M618.533,595.614a5.972,5.972,0,0,0-2.693,4.67c0,1.721,1.208,2.416,2.693,1.559a5.968,5.968,0,0,0,2.7-4.67C621.232,595.459,620.024,594.757,618.533,595.614Z" transform="translate(-240.255 -274.701)" fill="#fafafa"/>
      <path id="Path_6631" data-name="Path 6631" d="M811.18,537.493c-3.347,0-6.883,1.68-9.063,2.936-15.157,8.753-27.966,32.258-27.966,51.329,0,7.72,2.166,13.578,5.79,15.67,4.13,2.382,9.859-.216,12.917-1.977,15.157-8.753,27.959-32.258,27.959-51.329,0-7.72-2.166-13.578-5.79-15.67a7.565,7.565,0,0,0-3.853-.958Zm-27.419,89.43a25.855,25.855,0,0,1-13.072-3.455c-9.563-5.527-15.049-17.08-15.049-31.7,0-25.718,16.345-55.31,37.218-67.363,11.236-6.485,22.4-7.194,31.427-1.977,9.569,5.527,15.049,17.08,15.049,31.711,0,25.718-16.345,55.31-37.218,67.356-6.263,3.617-12.5,5.439-18.363,5.439Z" transform="translate(-285.712 -249.898)" fill="#4b5e67"/>
      <path id="Path_6632" data-name="Path 6632" d="M835.849,567.633c0-14.448-9.1-19.793-9.1-19.793,3.624,2.092,5.79,7.95,5.79,15.67,0,19.071-12.8,42.576-27.959,51.329-3.05,1.761-8.786,4.359-12.917,1.977,0,0,7.68,4.764,18.3-1.026,15.366-8.382,25.894-29.093,25.894-48.164Z" transform="translate(-297.424 -259.286)" fill="#404d55"/>
      <path id="Path_6633" data-name="Path 6633" d="M826.275,304.926a9.573,9.573,0,1,0-19.145,0V457.184c0,1.41.938,2.828,2.8,3.907a14.954,14.954,0,0,0,13.537,0c1.869-1.073,2.8-2.49,2.8-3.907V304.953h0v-.027Z" transform="translate(-302.455 -177.187)" fill="#404d55"/>
      <path id="Path_6634" data-name="Path 6634" d="M806.173,354.974a12.24,12.24,0,0,0-5.527-9.576c-1.552-.9-2.949-.958-3.955-.351l-.007-.007-23.62,13.612-.574.337-.229.135a7.912,7.912,0,0,0-1.127.925,7.82,7.82,0,0,0,9.218,12.437c.148-.081.3-.175.452-.256l23.768-13.693v-.007a3.9,3.9,0,0,0,1.6-3.563Z" transform="translate(-289.998 -193.217)" fill="#4b5e67"/>
      <path id="Path_6635" data-name="Path 6635" d="M804.212,411.463a12.229,12.229,0,0,0-5.527-9.576c-1.552-.9-2.949-.965-3.955-.351l-.007-.007-27.682,15.9-.574.337-.236.135a7.476,7.476,0,0,0-1.127.925,7.823,7.823,0,0,0,9.225,12.437c.148-.081.3-.175.452-.263l27.831-15.98v-.007a3.9,3.9,0,0,0,1.6-3.563Z" transform="translate(-288.037 -211.583)" fill="#4b5e67"/>
    </g>
  </g>
</svg>
