<svg xmlns="http://www.w3.org/2000/svg" width="25.344" height="22.818" viewBox="0 0 25.344 22.818">
  <path id="Icon_awesome-telegram" data-name="Icon awesome-telegram" d="M12.672.562C5.672.562,0,5.669,0,11.971S5.672,23.38,12.672,23.38s12.672-5.106,12.672-11.409S19.673.562,12.672.562ZM18.9,8.379,16.816,17.2c-.153.626-.567.777-1.145.483l-3.168-2.1-1.528,1.325a.832.832,0,0,1-.639.281l.225-2.9L16.433,9.51c.255-.2-.056-.317-.393-.115L8.784,13.508l-3.127-.879c-.68-.193-.695-.612.143-.906L18.017,7.481c.567-.184,1.063.124.879.9Z" transform="translate(0 -0.563)" fill="#333b3d"/>
</svg>
