<svg xmlns="http://www.w3.org/2000/svg" width="119.277" height="73.14" viewBox="0 0 119.277 73.14">
  <g id="_2577170928064" transform="translate(0)">
    <path id="Path_2973" data-name="Path 2973" d="M754.111,222.267c0-.56,1.466-1.358,2.246-1.065a4.36,4.36,0,0,1,1.9,1.758c.293.479.684.879-.147.693-.39-.08-.977-.16-1.514-.319-.342-.107-2.491-.693-2.491-1.066Zm4.933-33.834c-.341-.24-.147-.346-.39-.533l-.147-.107c-.147-.107-.1-.08-.293-.08-.1.133-.049.026-.147.266a.514.514,0,0,1-.049.266l-.147.32c-.049.133,0,.107-.1.187a7.775,7.775,0,0,0-.733,2.691c.1.746.927,1.758,1.025,2.451.341,1.891.391,3.97.831,5.994.781,4,1.368,7.939,2.2,11.642,1.514,7.033,3.272,17.476,3.272,24.616a3.446,3.446,0,0,1-3.955-2.9c-.294-1.465.586-4.1.733-5.807a7.524,7.524,0,0,1,.439-1.305,8.328,8.328,0,0,0,.147-1.572,5.016,5.016,0,0,0-.537-2.69,7.91,7.91,0,0,0-2.686-4.263c-1.612-1.279-3.224-.666-4.347.986a37.941,37.941,0,0,0-2.393,4.582c-1.026,2.371-.977,2.4-3.175,3.81a9.444,9.444,0,0,1-5.666.879c-3.956-.719-3.761-6.234-4.1-9.484-.39-3.73-.684-7.939-1.27-11.908-.635-3.89-.977-7.885-1.9-11.669-.293-1.119-2.393-10.177-3.224-10.23-.39.187-1.368,3.357-1.025,4.13a24.583,24.583,0,0,1,1.27,4.156c.635,2.851,1.611,6.127,1.954,9.031.341,3.171.83,6.634,1.27,9.725.488,3.25.537,6.74,1.025,9.884.488,3.2.147,6.021,2.344,8.632,2.1,2.5,4.884,2.451,7.863,1.518a6.888,6.888,0,0,0,3.272-2.211c.537-.8,1.026-3.544,1.9-3.544a10.9,10.9,0,0,1,1.66.959,11.9,11.9,0,0,0,3.81.906c.586-.026,1.856.16,2.1.56-.1.16-.635,3.783-.684,4.209a8.011,8.011,0,0,0,.537,4.289c.927,2.664,2.783,4.182,5.763,3.491,2.881-.693,4.1-1.785,6.593-3.3,2-1.226,10.354-7.033,11.038-8.978a14.744,14.744,0,0,0,.684-4.13,9.739,9.739,0,0,0-1.221-3.783,11.7,11.7,0,0,0-2.54-2.451,31.094,31.094,0,0,0-3.126-1.865c-1.172-.64-5.323-3.33-5.568-4.4h1.368l.147.319.1-.053c.2-.693-2.393-1.758-2.881-2.105-.684-.426-2.54-1.918-3.077-1.758a21.48,21.48,0,0,0-.1,3.143c.1,1.2,1.172,1.438,1.856,2.024,1.172.959.927,1.119,1.807,2.052A26.809,26.809,0,0,0,777.162,220c1.465.906,3.419,1.732,4.494,3.224,1.563,2.158-.245,2.957-2,4.236-1.465,1.065-3.028,2.238-4.542,3.17-2.2,1.359-7.619,5.355-10.012,5.328a23.79,23.79,0,0,0,.684-10.336,96.228,96.228,0,0,0-1.514-9.884c-.635-3.064-1.27-6.607-1.807-9.725-.586-3.25-1.368-6.474-1.856-9.75l.195-.16,2.149,2.478c1.025-.16-.1-1.891-.342-2.4-.39-.852-.733-1.838-1.172-2.638a3.8,3.8,0,0,1-.488-1.359,3.439,3.439,0,0,0-.635-1.225,17.121,17.121,0,0,0-1.27-2.531Z" transform="translate(-706.394 -177.872)" fill="#039" fill-rule="evenodd"/>
    <path id="Path_2974" data-name="Path 2974" d="M1167.355,552.909a1.625,1.625,0,0,1,.293.426c.049.107.147.293.1.427-.049.026.049.026-.1.054a1.375,1.375,0,0,1-.586-.107l-4.249-1.332.049-.213a2.121,2.121,0,0,1,2.491-.959,6.314,6.314,0,0,1,2,1.705ZM1105.67,583.2c.1,0,4.884-1.438,5.568-1.625,1.954-.426,3.81-1.039,5.763-1.412,3.37-.666,6.838-2.9,9.475-4.795a81.941,81.941,0,0,0,8.254-6.1c1.221-1.119,2.638-2.318,3.077-4.13a23.025,23.025,0,0,0,.635-3.01c.147-.879,0-2.8.2-3.25a15.847,15.847,0,0,0,2.93-.64,7.307,7.307,0,0,0,2.2-1.492,5.409,5.409,0,0,0,1.27-2.424c.049-.56.245-2.664.927-2.744.39.186.733,7.086,1.9,7.619a1.766,1.766,0,0,0,.39.346,1.241,1.241,0,0,1,.342.453c.049.666,2.442,1.359,3.224,1.332a11.2,11.2,0,0,0,4.053-.693c4.59-1.651,3.175-4.023,4.444-5.035l.782.133a18.708,18.708,0,0,0,2.638,1.465c.781.373,2.149.373,2.93.666a3.5,3.5,0,0,0,1.807-.133c.684-.187.488-.879.879-1.332a5.532,5.532,0,0,0,.635-3.143c-.244-5.141-4.688-9.484-7.912-3.543a6.231,6.231,0,0,1-.831,1.305c-.537.719-.927,3.25-2.344,4.13a11.3,11.3,0,0,1-6.593,1.971c-2.93.027-3.614-2.344-3.957-4.716-.2-1.305-.83-6.021-2.052-6.633-.879-.026-1.514,4.1-1.611,4.875-.342,1.971-1.661,2.771-3.175,3.41-5.568,2.424-6.1-4.4-7.473-4.555a11.753,11.753,0,0,0-1.026,3.276c-.049,1.065.927,2.1,1.417,2.984a20.619,20.619,0,0,1,2.54,6.314c.341,1.785,0,1.678-1.319,2.771-.733.64-1.611,1.438-2.393,2-1.66,1.2-3.468,2.451-5.324,3.57-1.856,1.172-3.565,2.344-5.421,3.437-.83.506-1.856,1.2-2.637,1.705-.831.479-1.905,1.013-2.735,1.545-1.856,1.146-3.859,2-5.666,3.091-.684.4-5.812,2.984-5.812,3.01Z" transform="translate(-1050.725 -510.114)" fill="#039" fill-rule="evenodd"/>
    <path id="Path_2975" data-name="Path 2975" d="M460.723,438.737Zm10.012-3.81Zm-15.873-15.692c1.123.266,1.807,1.891,2.589,2.771a13.459,13.459,0,0,0,3.126,2.424c2.344,1.412,4.639,2.131,6.936,3.969.635.479,2.54,2.291,2.442,3.01-.147.932-8.986,6.953-9.231,7.327-.2.054-4.151,2.851-4.982,3.277-1.954,1.013-4.005,1.838-6.007.346-4.249-3.2.976-11.562.342-12.522a18.167,18.167,0,0,0-2.2,4.9,16.357,16.357,0,0,0-.831,5.914c.1.107.049.026.1.213-.245.906.781,3.383,1.221,4.077a5.178,5.178,0,0,0,3.028,2.291c2.393.826,5.519-1.359,7.522-2.744a62.384,62.384,0,0,0,6.154-4.609c.781-.719,2.1-1.705,2.979-2.4a12.624,12.624,0,0,0,2.052-2,1.726,1.726,0,0,0,.244-.4c.342-.426.245.187.39-.16.2-.08,1.172-4.236-.049-6.394-1.417-2.531-1.172-2.478-3.517-4.263-1.954-1.466-8.645-4.209-9.524-6.18l2.2.346.1-.16-5.617-3.757-.1.16a15.223,15.223,0,0,0-.1,2.638,2.812,2.812,0,0,0,.1,1.252,2.4,2.4,0,0,0,.635.666Z" transform="translate(-444.898 -389.387)" fill="#039" fill-rule="evenodd"/>
    <path id="Path_2976" data-name="Path 2976" d="M484.893,226.988c-2.344.56-2.442-.054-3.712,3.064-.341.8-1.123,1.758-.586,2.478.39.506.88-1.146,1.758-1.385.928-.266,6.252-.107,4.3,1.466a24.729,24.729,0,0,1-4.639,2.877c-.977.479-1.612.64-2.54,1.065-.586.266-.488.8.439.426.439-.187.831-.026,1.514-.266,1.807-.666,4.053-.852,5.226-2.318,1.172-1.545,4.737-5.781,1.465-6.9a13.89,13.89,0,0,0-3.224-.506Z" transform="translate(-474.392 -216.881)" fill="#039" fill-rule="evenodd"/>
    <path id="Path_2977" data-name="Path 2977" d="M1552.465,821.742c-.83.346-1.514,3.17-2.54,2.5-.684-.426-2.931-1.945-3.468-1.252-.439.612-2.2,2.931-1.514,3.543.245.213,3.322,1.838,3.614,1.625a8.93,8.93,0,0,0,1.27-1.492c.537-.746.586-1.305,1.368-.8.879.506,2.393,2.1,3.467,1.518.831-.426,2.1-2.5,1.123-3.49-.439-.453-2.833-2.371-3.322-2.158Z" transform="translate(-1454.638 -763.948)" fill="#039" fill-rule="evenodd"/>
    <path id="Path_2978" data-name="Path 2978" d="M1447.323,379.755c-.049.479-5.079,3.65-6.056,4.182a5.414,5.414,0,0,0-1.074.612c-.439.479.684-.053.928-.053a23.685,23.685,0,0,0,5.079-1.518c.977-.453,2.3-3.117,2.638-3.863.88-1.732,1.075-3.783-1.465-3.969-2.3-.133-3.321-.026-4.884,1.332a7.615,7.615,0,0,0-.879,2.5c-.1.4-.341.986-.2,1.359.342.852.586-.107.733-.32.83-.959,4.835-1.146,5.177-.266Z" transform="translate(-1358.336 -353.131)" fill="#039" fill-rule="evenodd"/>
    <path id="Path_2979" data-name="Path 2979" d="M900.293,227.835c-.928.8-2.1-.16-2.881,2.531-.391,1.412.488,3.117,1.025,4.316,1.66,3.65,2.149,4.4,2.149,8.605,1.025-.026.439-4.236.245-4.929a23.518,23.518,0,0,0-1.612-4.4c-.537-1.013-1.954-3.544-.39-4.209,1.026-.479,4.1-.612,3.663-2.371l-3.126-1.625-.1.187c0-.026.049-3.383-.049-4a25.484,25.484,0,0,0-.977-3.81,25.166,25.166,0,0,0-1.466-3.357c-.2-.293-.733-1.625-.977-.879-.293,1.013-.39.906.147,1.732a20.22,20.22,0,0,1,2.54,6.9c.245,1.305.537,3.064,0,4.236-1.27,2.771.488.213,1.807,1.065Z" transform="translate(-857.46 -204.647)" fill="#039" fill-rule="evenodd"/>
    <path id="Path_2980" data-name="Path 2980" d="M1061.2,223.595c.1-.08.049-.054.1-.187l.147-.32a.516.516,0,0,0,.049-.266c.1-.24.049-.133.147-.266.2,0,.147-.026.293.08l.147.107c.245.187.049.293.391.533-.049-.08-.049-.054-.049-.133l-.147-.293a1.193,1.193,0,0,0-.635-.4,4.453,4.453,0,0,0-.439,1.146Z" transform="translate(-1009.82 -212.715)" fill="#039" fill-rule="evenodd"/>
    <path id="Path_2981" data-name="Path 2981" d="M1871.44,635.639a1.364,1.364,0,0,0,.586.107c.147-.026.049-.026.1-.054.049-.133-.049-.32-.1-.426a1.616,1.616,0,0,0-.293-.426c0,.08.342.693.342.826A5.932,5.932,0,0,1,1871.44,635.639Z" transform="translate(-1755.104 -592.044)" fill="#039" fill-rule="evenodd"/>
    <path id="Path_2982" data-name="Path 2982" d="M1632.772,714.059a1.253,1.253,0,0,0-.342-.453,1.731,1.731,0,0,1-.39-.346c0,.187.2.32.292.426a1.61,1.61,0,0,0,.2.187c.146.187.1.107.244.187Z" transform="translate(-1534.896 -664.177)" fill="#039" fill-rule="evenodd"/>
    <path id="Path_2983" data-name="Path 2983" d="M446.1,740.723c-.049-.186,0-.107-.1-.213l-.1.026c0,.08,0,.053.049.107Z" transform="translate(-443.849 -689.243)" fill="#039" fill-rule="evenodd"/>
    <path id="Path_2984" data-name="Path 2984" d="M1494.96,757.97c.1.133.2.107.147-.08C1495.009,757.89,1495.058,757.81,1494.96,757.97Z" transform="translate(-1408.806 -705.211)" fill="#039" fill-rule="evenodd"/>
    <path id="Path_2985" data-name="Path 2985" d="M633.54,101.222c.049-.026.1-.026.1-.107,0-.16,0-.053-.1-.08Z" transform="translate(-616.445 -101.026)" fill="#039" fill-rule="evenodd"/>
    <path id="Path_2986" data-name="Path 2986" d="M914.38,384.743h.1v-.133h-.1Z" transform="translate(-874.771 -361.875)" fill="#039" fill-rule="evenodd"/>
    <path id="Path_2987" data-name="Path 2987" d="M422.238,813.807c0-.187.1-.107-.1-.187C422.189,813.779,422.14,813.753,422.238,813.807Z" transform="translate(-421.993 -756.492)" fill="#039" fill-rule="evenodd"/>
    <path id="Path_2988" data-name="Path 2988" d="M1628.247,567.87l-.049-.16C1628.1,567.843,1628.1,567.843,1628.247,567.87Z" transform="translate(-1531.299 -530.296)" fill="#039" fill-rule="evenodd"/>
    <path id="Path_2989" data-name="Path 2989" d="M493.42,290.318c0,.026.147.107.1,0C493.469,290.265,493.42,290.238,493.42,290.318Z" transform="translate(-487.559 -275.096)" fill="#039" fill-rule="evenodd"/>
    <path id="Path_2990" data-name="Path 2990" d="M542.346,473.33c-.2.054-.147,0-.2.133Z" transform="translate(-532.382 -443.483)" fill="#039" fill-rule="evenodd"/>
    <path id="Path_2991" data-name="Path 2991" d="M1051.9,994.681c.049.053.2-.054.049-.026C1051.952,994.654,1051.854,994.628,1051.9,994.681Z" transform="translate(-1001.256 -923.006)" fill="#039" fill-rule="evenodd"/>
    <path id="Path_2992" data-name="Path 2992" d="M493.263,283.871c.049.054.2-.054.049-.026C493.312,283.844,493.214,283.818,493.263,283.871Z" transform="translate(-487.402 -269.182)" fill="#039" fill-rule="evenodd"/>
    <path id="Path_2993" data-name="Path 2993" d="M501.34,267.315l.1-.107C501.291,267.262,501.389,267.1,501.34,267.315Z" transform="translate(-494.844 -253.879)" fill="#039" fill-rule="evenodd"/>
    <path id="Path_2994" data-name="Path 2994" d="M1053.123,996.884c.049.026.147-.08.049-.026C1053.172,996.858,1053.074,996.8,1053.123,996.884Z" transform="translate(-1002.378 -925.023)" fill="#039" fill-rule="evenodd"/>
    <path id="Path_2995" data-name="Path 2995" d="M1052.06,999.1c0,.08.1-.026.049-.026C1052.06,999.047,1052.109,999.019,1052.06,999.1Z" transform="translate(-1001.413 -927.052)" fill="#039" fill-rule="evenodd"/>
    <path id="Path_2996" data-name="Path 2996" d="M497.523,272.81c.049.026.147-.08.049-.026C497.572,272.784,497.474,272.757,497.523,272.81Z" transform="translate(-491.32 -259)" fill="#039" fill-rule="evenodd"/>
    <path id="Path_2997" data-name="Path 2997" d="M1105.109,1012.67h-.049l.049.054Z" transform="translate(-1050.164 -939.584)" fill="#039" fill-rule="evenodd"/>
    <path id="Path_2998" data-name="Path 2998" d="M1796.559,670.06h-.049l.049.054Z" transform="translate(-1686.181 -624.441)" fill="#039" fill-rule="evenodd"/>
    <path id="Path_2999" data-name="Path 2999" d="M516.321,282.286v-.026S516.272,282.286,516.321,282.286Z" transform="translate(-508.604 -267.731)" fill="#039" fill-rule="evenodd"/>
    <path id="Path_3000" data-name="Path 3000" d="M536.06,467.69Z" transform="translate(-526.78 -438.295)" fill="#039" fill-rule="evenodd"/>
    <path id="Path_3001" data-name="Path 3001" d="M1308.54,293.56Z" transform="translate(-1237.331 -278.125)" fill="#039" fill-rule="evenodd"/>
    <path id="Path_3002" data-name="Path 3002" d="M492.81,291.23Z" transform="translate(-486.998 -275.981)" fill="#039" fill-rule="evenodd"/>
    <path id="Path_3003" data-name="Path 3003" d="M493.171,286.25Z" transform="translate(-487.309 -271.401)" fill="#039" fill-rule="evenodd"/>
    <path id="Path_3004" data-name="Path 3004" d="M532.41,278.6Z" transform="translate(-523.423 -264.364)" fill="#039" fill-rule="evenodd"/>
    <path id="Path_3005" data-name="Path 3005" d="M420.31,815.646v0Z" transform="translate(-420.31 -758.331)" fill="#039" fill-rule="evenodd"/>
  </g>
</svg>
