<svg id="_2577170928064" xmlns="http://www.w3.org/2000/svg" width="86.978" height="53.334" viewBox="0 0 86.978 53.334">
  <path id="Path_2973" data-name="Path 2973" d="M747.942,212.059c0-.408,1.069-.99,1.638-.777a3.18,3.18,0,0,1,1.389,1.282c.213.35.5.641-.107.505-.285-.058-.713-.116-1.1-.233-.249-.078-1.816-.505-1.816-.778Zm3.6-24.672c-.249-.175-.107-.253-.285-.389l-.107-.078c-.107-.078-.071-.058-.214-.058-.071.1-.036.019-.107.194a.376.376,0,0,1-.036.194l-.107.233c-.036.1,0,.078-.071.136a5.67,5.67,0,0,0-.534,1.962c.071.544.676,1.282.748,1.787.249,1.379.285,2.895.606,4.371.569,2.914,1,5.789,1.6,8.49,1.1,5.129,2.386,12.744,2.386,17.95a2.513,2.513,0,0,1-2.884-2.117c-.214-1.069.427-2.992.534-4.235a5.49,5.49,0,0,1,.32-.952,6.071,6.071,0,0,0,.107-1.146,3.658,3.658,0,0,0-.392-1.962,5.768,5.768,0,0,0-1.958-3.108c-1.176-.932-2.351-.486-3.17.719a27.674,27.674,0,0,0-1.745,3.342c-.748,1.729-.713,1.749-2.315,2.778a6.887,6.887,0,0,1-4.131.641c-2.885-.524-2.742-4.546-2.991-6.916-.285-2.72-.5-5.789-.926-8.684-.463-2.837-.713-5.75-1.389-8.509-.213-.816-1.745-7.421-2.351-7.46a5.256,5.256,0,0,0-.748,3.011,17.929,17.929,0,0,1,.926,3.031c.463,2.079,1.175,4.468,1.425,6.586.249,2.312.605,4.838.926,7.091.356,2.37.392,4.915.748,7.208.356,2.331.107,4.39,1.709,6.294,1.531,1.826,3.561,1.787,5.734,1.107a5.023,5.023,0,0,0,2.386-1.612c.392-.583.748-2.584,1.389-2.584a7.95,7.95,0,0,1,1.211.7,8.676,8.676,0,0,0,2.778.661c.427-.019,1.353.117,1.531.408-.071.116-.463,2.759-.5,3.069a5.842,5.842,0,0,0,.392,3.128c.676,1.943,2.03,3.05,4.2,2.545,2.1-.505,2.991-1.3,4.808-2.409,1.46-.894,7.55-5.129,8.049-6.547a10.751,10.751,0,0,0,.5-3.011,7.1,7.1,0,0,0-.89-2.759,8.534,8.534,0,0,0-1.852-1.787,22.677,22.677,0,0,0-2.279-1.36c-.855-.467-3.882-2.428-4.06-3.205h1l.107.233.071-.039c.143-.505-1.745-1.282-2.1-1.535-.5-.31-1.852-1.4-2.244-1.282a15.664,15.664,0,0,0-.071,2.292c.071.874.855,1.049,1.353,1.476.855.7.676.816,1.318,1.5a19.549,19.549,0,0,0,4.808,3.633c1.069.661,2.493,1.263,3.277,2.351,1.14,1.574-.178,2.157-1.46,3.089-1.069.777-2.208,1.632-3.312,2.312-1.6.991-5.556,3.905-7.3,3.885a17.347,17.347,0,0,0,.5-7.537,70.168,70.168,0,0,0-1.1-7.208c-.463-2.234-.926-4.818-1.318-7.091-.427-2.37-1-4.721-1.353-7.11l.142-.117,1.567,1.807c.748-.116-.071-1.379-.249-1.749-.285-.621-.534-1.341-.855-1.923a2.774,2.774,0,0,1-.356-.991,2.507,2.507,0,0,0-.463-.893,12.485,12.485,0,0,0-.926-1.846Z" transform="translate(-713.146 -179.686)" fill-rule="evenodd"/>
  <path id="Path_2974" data-name="Path 2974" d="M1150.651,550.976a1.184,1.184,0,0,1,.213.31c.036.078.107.214.071.311-.036.019.036.019-.071.039a1,1,0,0,1-.427-.078l-3.1-.971.036-.156a1.546,1.546,0,0,1,1.816-.7,4.6,4.6,0,0,1,1.46,1.243Zm-44.981,22.088c.071,0,3.561-1.049,4.06-1.185,1.425-.31,2.778-.758,4.2-1.03a19.442,19.442,0,0,0,6.909-3.5,59.734,59.734,0,0,0,6.019-4.449,6.335,6.335,0,0,0,2.244-3.011,16.786,16.786,0,0,0,.463-2.2c.107-.641,0-2.04.143-2.37a11.559,11.559,0,0,0,2.137-.467,5.329,5.329,0,0,0,1.6-1.088,3.945,3.945,0,0,0,.926-1.768c.036-.408.178-1.943.676-2,.285.135.534,5.167,1.389,5.556a1.289,1.289,0,0,0,.285.253.9.9,0,0,1,.249.33c.036.486,1.781.991,2.351.971a8.167,8.167,0,0,0,2.956-.505c3.347-1.2,2.315-2.933,3.241-3.672l.57.1a13.652,13.652,0,0,0,1.924,1.069c.57.272,1.567.272,2.137.486a2.552,2.552,0,0,0,1.318-.1c.5-.136.356-.641.641-.972a4.033,4.033,0,0,0,.463-2.292c-.178-3.749-3.419-6.916-5.77-2.584a4.54,4.54,0,0,1-.606.952c-.391.524-.676,2.37-1.709,3.011a8.242,8.242,0,0,1-4.808,1.438c-2.137.019-2.635-1.709-2.885-3.439-.143-.952-.6-4.39-1.5-4.837-.641-.019-1.1,2.992-1.175,3.555a3.228,3.228,0,0,1-2.315,2.487c-4.06,1.768-4.452-3.205-5.449-3.322a8.574,8.574,0,0,0-.748,2.389c-.036.777.676,1.535,1.033,2.176a15.036,15.036,0,0,1,1.852,4.6c.249,1.3,0,1.224-.962,2.02-.534.467-1.175,1.049-1.745,1.457-1.211.874-2.529,1.787-3.882,2.6-1.353.855-2.6,1.709-3.953,2.506-.605.369-1.353.875-1.923,1.243-.606.35-1.389.738-1.995,1.127-1.353.835-2.814,1.457-4.131,2.254-.5.291-4.238,2.176-4.238,2.2Z" transform="translate(-1065.604 -519.769)" fill-rule="evenodd"/>
  <path id="Path_2975" data-name="Path 2975" d="M457.018,432.179Zm7.3-2.778Zm-11.575-11.442c.819.194,1.318,1.379,1.888,2.02a9.813,9.813,0,0,0,2.279,1.768c1.709,1.03,3.383,1.554,5.057,2.894.463.35,1.852,1.671,1.781,2.2-.107.68-6.553,5.07-6.731,5.343-.143.039-3.027,2.079-3.633,2.389-1.425.738-2.921,1.34-4.38.253-3.1-2.331.712-8.431.249-9.131a13.247,13.247,0,0,0-1.6,3.575,11.927,11.927,0,0,0-.606,4.313c.071.078.036.019.071.156a6.239,6.239,0,0,0,.89,2.973,3.776,3.776,0,0,0,2.208,1.671c1.745.6,4.024-.991,5.485-2a45.49,45.49,0,0,0,4.487-3.361c.569-.524,1.531-1.243,2.172-1.749a9.206,9.206,0,0,0,1.5-1.457,1.259,1.259,0,0,0,.178-.291c.25-.31.178.136.285-.116.143-.059.855-3.089-.036-4.663-1.033-1.846-.855-1.807-2.565-3.108-1.425-1.069-6.3-3.069-6.945-4.507l1.6.253.071-.116-4.1-2.739-.071.117a11.1,11.1,0,0,0-.071,1.923,2.051,2.051,0,0,0,.071.913,1.75,1.75,0,0,0,.463.486Z" transform="translate(-445.479 -396.193)" fill-rule="evenodd"/>
  <path id="Path_2976" data-name="Path 2976" d="M483.326,226.986c-1.709.408-1.781-.039-2.707,2.234-.249.583-.819,1.282-.427,1.807.285.369.641-.835,1.282-1.01.676-.194,4.559-.078,3.134,1.069a18.033,18.033,0,0,1-3.383,2.1c-.713.35-1.176.467-1.852.777-.427.194-.356.583.32.311.32-.136.606-.019,1.1-.194,1.318-.486,2.956-.621,3.811-1.69.855-1.127,3.454-4.216,1.069-5.032a10.129,10.129,0,0,0-2.351-.369Z" transform="translate(-475.669 -219.616)" fill-rule="evenodd"/>
  <path id="Path_2977" data-name="Path 2977" d="M1550.386,821.738c-.605.252-1.1,2.311-1.852,1.826-.5-.31-2.137-1.418-2.529-.913-.32.447-1.6,2.137-1.1,2.584a9.392,9.392,0,0,0,2.635,1.185,6.507,6.507,0,0,0,.926-1.088c.392-.544.427-.952,1-.583.641.369,1.745,1.535,2.529,1.107.606-.31,1.531-1.826.819-2.545-.32-.33-2.066-1.729-2.422-1.574Z" transform="translate(-1479.05 -779.594)" fill-rule="evenodd"/>
  <path id="Path_2978" data-name="Path 2978" d="M1445.365,378.5c-.035.35-3.7,2.662-4.416,3.05a3.947,3.947,0,0,0-.783.447c-.32.35.5-.039.677-.039a17.271,17.271,0,0,0,3.7-1.107c.713-.33,1.674-2.273,1.923-2.817.641-1.263.784-2.759-1.069-2.894-1.674-.1-2.422-.019-3.561.971a5.553,5.553,0,0,0-.641,1.826c-.071.292-.249.719-.143.991.249.621.427-.078.534-.233.606-.7,3.526-.835,3.775-.194Z" transform="translate(-1380.475 -359.081)" fill-rule="evenodd"/>
  <path id="Path_2979" data-name="Path 2979" d="M899.011,224c-.676.583-1.531-.117-2.1,1.846-.285,1.029.356,2.273.748,3.147,1.211,2.662,1.567,3.205,1.567,6.275.748-.019.32-3.089.178-3.594a17.149,17.149,0,0,0-1.176-3.205c-.392-.738-1.425-2.584-.285-3.069.748-.35,2.991-.447,2.671-1.729l-2.279-1.185-.071.136c0-.019.036-2.467-.036-2.914a18.584,18.584,0,0,0-.713-2.778,18.353,18.353,0,0,0-1.069-2.448c-.143-.214-.534-1.185-.713-.641-.213.738-.285.661.107,1.263a14.744,14.744,0,0,1,1.852,5.032,5.683,5.683,0,0,1,0,3.089c-.926,2.02.356.156,1.318.777Z" transform="translate(-867.777 -207.093)" fill-rule="evenodd"/>
  <path id="Path_2980" data-name="Path 2980" d="M1061.2,223.285c.071-.058.036-.039.071-.136l.107-.233a.375.375,0,0,0,.036-.194c.071-.175.036-.1.107-.194.143,0,.107-.019.214.058l.107.078c.178.136.036.213.285.389-.036-.058-.036-.039-.036-.1l-.107-.213a.87.87,0,0,0-.463-.292,3.25,3.25,0,0,0-.32.835Z" transform="translate(-1023.734 -215.351)" fill-rule="evenodd"/>
  <path id="Path_2981" data-name="Path 2981" d="M1871.44,635.423a.994.994,0,0,0,.427.078c.107-.019.036-.019.071-.039.036-.1-.036-.233-.071-.311a1.177,1.177,0,0,0-.214-.31c0,.058.249.505.249.6A4.333,4.333,0,0,1,1871.44,635.423Z" transform="translate(-1786.606 -603.633)" fill-rule="evenodd"/>
  <path id="Path_2982" data-name="Path 2982" d="M1632.574,713.843a.912.912,0,0,0-.249-.33,1.261,1.261,0,0,1-.285-.253c0,.136.143.233.213.31a1.176,1.176,0,0,0,.143.136c.107.136.071.078.178.136Z" transform="translate(-1561.202 -677.469)" fill-rule="evenodd"/>
  <path id="Path_2983" data-name="Path 2983" d="M446.043,740.666c-.036-.136,0-.078-.071-.156l-.071.019c0,.058,0,.039.036.078Z" transform="translate(-444.404 -703.126)" fill-rule="evenodd"/>
  <path id="Path_2984" data-name="Path 2984" d="M1494.96,757.943c.071.1.142.078.107-.059C1495,757.885,1495.031,757.826,1494.96,757.943Z" transform="translate(-1432.136 -719.471)" fill-rule="evenodd"/>
  <path id="Path_2985" data-name="Path 2985" d="M633.54,101.169c.036-.019.071-.019.071-.078,0-.116,0-.039-.071-.058Z" transform="translate(-621.075 -101.026)" fill-rule="evenodd"/>
  <path id="Path_2986" data-name="Path 2986" d="M914.38,384.707h.071v-.1h-.071Z" transform="translate(-885.497 -368.032)" fill-rule="evenodd"/>
  <path id="Path_2987" data-name="Path 2987" d="M422.211,813.756c0-.136.071-.078-.071-.136C422.176,813.736,422.14,813.717,422.211,813.756Z" transform="translate(-422.033 -771.962)" fill-rule="evenodd"/>
  <path id="Path_2988" data-name="Path 2988" d="M1628.215,567.826l-.036-.116C1628.108,567.807,1628.108,567.807,1628.215,567.826Z" transform="translate(-1557.52 -540.428)" fill-rule="evenodd"/>
  <path id="Path_2989" data-name="Path 2989" d="M493.42,290.3c0,.019.107.078.071,0C493.456,290.266,493.42,290.246,493.42,290.3Z" transform="translate(-489.146 -279.205)" fill-rule="evenodd"/>
  <path id="Path_2990" data-name="Path 2990" d="M542.293,473.33c-.143.039-.107,0-.143.1Z" transform="translate(-535.027 -451.565)" fill-rule="evenodd"/>
  <path id="Path_2991" data-name="Path 2991" d="M1051.9,994.672c.036.039.143-.039.036-.019C1051.935,994.652,1051.864,994.633,1051.9,994.672Z" transform="translate(-1014.967 -942.406)" fill-rule="evenodd"/>
  <path id="Path_2992" data-name="Path 2992" d="M493.259,283.862c.036.039.143-.039.036-.019C493.295,283.842,493.224,283.823,493.259,283.862Z" transform="translate(-488.985 -273.15)" fill-rule="evenodd"/>
  <path id="Path_2993" data-name="Path 2993" d="M501.34,267.284l.071-.078C501.3,267.246,501.376,267.129,501.34,267.284Z" transform="translate(-496.603 -257.486)" fill-rule="evenodd"/>
  <path id="Path_2994" data-name="Path 2994" d="M1053.119,996.873c.036.019.107-.058.036-.019C1053.155,996.853,1053.083,996.814,1053.119,996.873Z" transform="translate(-1016.115 -944.471)" fill-rule="evenodd"/>
  <path id="Path_2995" data-name="Path 2995" d="M1052.06,999.085c0,.059.071-.019.036-.019C1052.06,999.046,1052.1,999.027,1052.06,999.085Z" transform="translate(-1015.128 -946.548)" fill-rule="evenodd"/>
  <path id="Path_2996" data-name="Path 2996" d="M497.519,272.8c.036.019.107-.058.036-.019C497.555,272.78,497.484,272.76,497.519,272.8Z" transform="translate(-492.996 -262.728)" fill-rule="evenodd"/>
  <path id="Path_2997" data-name="Path 2997" d="M1105.1,1012.67h-.036l.036.039Z" transform="translate(-1065.029 -959.375)" fill-rule="evenodd"/>
  <path id="Path_2998" data-name="Path 2998" d="M1796.546,670.06h-.036l.036.039Z" transform="translate(-1716.057 -636.794)" fill-rule="evenodd"/>
  <path id="Path_2999" data-name="Path 2999" d="M516.315,282.279v-.019S516.279,282.279,516.315,282.279Z" transform="translate(-510.687 -271.665)" fill-rule="evenodd"/>
  <path id="Path_3000" data-name="Path 3000" d="M536.06,467.69Z" transform="translate(-529.293 -446.255)" fill-rule="evenodd"/>
  <path id="Path_3001" data-name="Path 3001" d="M1308.54,293.56Z" transform="translate(-1256.614 -282.304)" fill-rule="evenodd"/>
  <path id="Path_3002" data-name="Path 3002" d="M492.81,291.23Z" transform="translate(-488.572 -280.111)" fill-rule="evenodd"/>
  <path id="Path_3003" data-name="Path 3003" d="M493.165,286.25Z" transform="translate(-488.891 -275.422)" fill-rule="evenodd"/>
  <path id="Path_3004" data-name="Path 3004" d="M532.41,278.6Z" transform="translate(-525.857 -268.219)" fill-rule="evenodd"/>
  <path id="Path_3005" data-name="Path 3005" d="M420.31,815.639v0Z" transform="translate(-420.31 -773.845)" fill-rule="evenodd"/>
</svg>
