<svg id="_2577170928064" xmlns="http://www.w3.org/2000/svg" width="110.784" height="67.932" viewBox="0 0 110.784 67.932">
  <path id="Path_2973" data-name="Path 2973" d="M752.489,219.582c0-.52,1.361-1.261,2.086-.99a4.051,4.051,0,0,1,1.769,1.633c.272.445.635.816-.136.643-.363-.074-.908-.148-1.406-.3-.317-.1-2.314-.643-2.314-.99Zm4.582-31.425c-.317-.223-.136-.322-.363-.5l-.136-.1c-.136-.1-.091-.074-.272-.074-.091.124-.045.025-.136.247a.478.478,0,0,1-.045.247l-.136.3c-.045.124,0,.1-.091.173a7.219,7.219,0,0,0-.681,2.5c.091.692.861,1.633.952,2.276.317,1.757.363,3.687.771,5.567.725,3.712,1.27,7.374,2.041,10.813,1.406,6.532,3.039,16.232,3.039,22.863a3.2,3.2,0,0,1-3.674-2.7c-.273-1.361.544-3.811.68-5.394a7,7,0,0,1,.408-1.212,7.734,7.734,0,0,0,.136-1.46,4.659,4.659,0,0,0-.5-2.5,7.346,7.346,0,0,0-2.495-3.959c-1.5-1.188-2.994-.619-4.037.916a35.226,35.226,0,0,0-2.223,4.256c-.953,2.2-.908,2.227-2.949,3.538a8.772,8.772,0,0,1-5.262.817c-3.675-.668-3.493-5.79-3.81-8.809-.363-3.464-.635-7.374-1.18-11.06-.59-3.613-.908-7.324-1.769-10.838-.272-1.039-2.223-9.452-2.994-9.5-.363.173-1.27,3.118-.952,3.835a22.824,22.824,0,0,1,1.179,3.86c.59,2.648,1.5,5.691,1.815,8.388.317,2.945.771,6.162,1.179,9.032.454,3.019.5,6.26.952,9.18.454,2.969.136,5.592,2.177,8.017,1.95,2.326,4.536,2.276,7.3,1.41a6.4,6.4,0,0,0,3.039-2.054c.5-.742.953-3.291,1.769-3.291a10.128,10.128,0,0,1,1.542.891,11.052,11.052,0,0,0,3.538.841c.544-.025,1.724.149,1.95.52-.091.148-.59,3.514-.635,3.909a7.441,7.441,0,0,0,.5,3.984c.861,2.474,2.585,3.885,5.353,3.242,2.676-.643,3.81-1.658,6.124-3.069,1.86-1.138,9.617-6.532,10.252-8.339a13.692,13.692,0,0,0,.635-3.835,9.044,9.044,0,0,0-1.134-3.514,10.869,10.869,0,0,0-2.359-2.276,28.889,28.889,0,0,0-2.9-1.732c-1.089-.594-4.944-3.093-5.171-4.083h1.27l.136.3.091-.049c.182-.643-2.223-1.633-2.676-1.955-.635-.4-2.359-1.782-2.858-1.633a19.94,19.94,0,0,0-.091,2.92c.091,1.113,1.089,1.336,1.724,1.88,1.089.891.861,1.04,1.678,1.905a24.9,24.9,0,0,0,6.124,4.627c1.361.841,3.176,1.608,4.174,2.994,1.452,2-.227,2.747-1.86,3.935-1.361.99-2.812,2.078-4.219,2.944-2.041,1.262-7.077,4.974-9.3,4.949a22.093,22.093,0,0,0,.635-9.6,89.334,89.334,0,0,0-1.406-9.18c-.59-2.846-1.179-6.136-1.678-9.032-.544-3.019-1.27-6.013-1.724-9.056l.181-.149,2,2.3c.952-.148-.091-1.756-.317-2.227-.362-.792-.681-1.707-1.088-2.45a3.532,3.532,0,0,1-.454-1.262,3.194,3.194,0,0,0-.59-1.138,15.9,15.9,0,0,0-1.179-2.351Z" transform="translate(-708.17 -178.349)" fill="#fff" fill-rule="evenodd"/>
  <path id="Path_2974" data-name="Path 2974" d="M1162.962,552.4a1.509,1.509,0,0,1,.272.4c.046.1.136.273.091.4-.045.025.045.025-.091.05a1.28,1.28,0,0,1-.544-.1l-3.946-1.237.045-.2a1.969,1.969,0,0,1,2.313-.89,5.86,5.86,0,0,1,1.86,1.584Zm-57.292,28.134c.091,0,4.536-1.336,5.172-1.509,1.815-.4,3.538-.965,5.353-1.311,3.13-.619,6.351-2.7,8.8-4.453a76.154,76.154,0,0,0,7.667-5.667c1.134-1.04,2.45-2.153,2.858-3.836a21.285,21.285,0,0,0,.59-2.8c.136-.817,0-2.6.182-3.019a14.712,14.712,0,0,0,2.721-.594,6.782,6.782,0,0,0,2.042-1.386,5.019,5.019,0,0,0,1.18-2.252c.045-.52.227-2.474.862-2.549.363.173.68,6.581,1.769,7.077a1.651,1.651,0,0,0,.363.322,1.154,1.154,0,0,1,.317.421c.045.619,2.268,1.262,2.994,1.237a10.4,10.4,0,0,0,3.765-.643c4.263-1.534,2.948-3.736,4.128-4.677l.726.124a17.358,17.358,0,0,0,2.45,1.361c.726.346,2,.346,2.722.619a3.251,3.251,0,0,0,1.679-.124c.635-.174.453-.817.817-1.238a5.142,5.142,0,0,0,.59-2.92c-.227-4.775-4.355-8.809-7.349-3.291a5.78,5.78,0,0,1-.772,1.212c-.5.668-.861,3.019-2.177,3.835a10.5,10.5,0,0,1-6.123,1.831c-2.722.025-3.357-2.177-3.675-4.38-.182-1.212-.771-5.592-1.905-6.161-.816-.025-1.407,3.811-1.5,4.528-.317,1.831-1.542,2.573-2.949,3.168-5.171,2.252-5.67-4.083-6.94-4.231a10.9,10.9,0,0,0-.953,3.043c-.045.99.861,1.955,1.316,2.772a19.154,19.154,0,0,1,2.359,5.864c.317,1.658,0,1.558-1.225,2.573-.681.594-1.5,1.336-2.223,1.856-1.542,1.113-3.221,2.276-4.945,3.316-1.724,1.089-3.312,2.177-5.035,3.192-.771.47-1.724,1.114-2.449,1.584-.771.445-1.769.94-2.541,1.435-1.724,1.064-3.584,1.856-5.262,2.87-.635.371-5.4,2.771-5.4,2.8Z" transform="translate(-1054.637 -512.653)" fill="#fff" fill-rule="evenodd"/>
  <path id="Path_2975" data-name="Path 2975" d="M459.749,437.013Zm9.3-3.538ZM454.306,418.9c1.043.247,1.678,1.757,2.4,2.573a12.5,12.5,0,0,0,2.9,2.252c2.177,1.311,4.309,1.979,6.442,3.686.59.445,2.359,2.128,2.268,2.8-.136.866-8.346,6.458-8.573,6.805-.182.05-3.856,2.648-4.627,3.043-1.815.94-3.72,1.707-5.579.322-3.946-2.969.907-10.739.317-11.63a16.871,16.871,0,0,0-2.041,4.553,15.19,15.19,0,0,0-.771,5.493c.091.1.045.025.091.2-.227.841.725,3.142,1.134,3.786a4.809,4.809,0,0,0,2.812,2.128c2.223.767,5.126-1.262,6.986-2.549a57.933,57.933,0,0,0,5.716-4.281c.725-.668,1.95-1.584,2.767-2.227a11.728,11.728,0,0,0,1.905-1.856,1.605,1.605,0,0,0,.226-.371c.318-.4.227.173.363-.148.182-.074,1.089-3.934-.045-5.939-1.316-2.351-1.089-2.3-3.267-3.959-1.815-1.361-8.029-3.909-8.846-5.74l2.042.322.091-.148-5.217-3.489-.091.149a14.137,14.137,0,0,0-.091,2.45,2.612,2.612,0,0,0,.091,1.163,2.229,2.229,0,0,0,.59.619Z" transform="translate(-445.051 -391.177)" fill="#fff" fill-rule="evenodd"/>
  <path id="Path_2976" data-name="Path 2976" d="M484.481,226.987c-2.177.52-2.268-.05-3.448,2.846-.317.742-1.043,1.633-.544,2.3.363.47.817-1.064,1.633-1.287.862-.247,5.807-.1,3.992,1.361a22.974,22.974,0,0,1-4.309,2.672c-.908.445-1.5.594-2.359.99-.544.247-.453.742.408.4.408-.174.771-.025,1.407-.247,1.678-.619,3.765-.792,4.854-2.153,1.089-1.435,4.4-5.369,1.361-6.409a12.9,12.9,0,0,0-2.994-.47Z" transform="translate(-474.728 -217.6)" fill="#fff" fill-rule="evenodd"/>
  <path id="Path_2977" data-name="Path 2977" d="M1551.918,821.741c-.771.322-1.406,2.944-2.359,2.326-.635-.4-2.722-1.806-3.221-1.163-.408.569-2.041,2.722-1.407,3.291.227.2,3.085,1.707,3.357,1.509a8.275,8.275,0,0,0,1.18-1.386c.5-.692.544-1.212,1.27-.742.816.47,2.223,1.955,3.22,1.41.771-.4,1.951-2.326,1.043-3.241-.408-.421-2.631-2.2-3.085-2Z" transform="translate(-1461.057 -768.062)" fill="#fff" fill-rule="evenodd"/>
  <path id="Path_2978" data-name="Path 2978" d="M1446.808,379.424c-.045.445-4.717,3.39-5.625,3.885a5.032,5.032,0,0,0-1,.569c-.408.445.635-.049.861-.049a21.99,21.99,0,0,0,4.717-1.41c.908-.421,2.132-2.895,2.45-3.588.817-1.608,1-3.514-1.361-3.687-2.131-.124-3.085-.025-4.536,1.237a7.071,7.071,0,0,0-.816,2.326c-.091.372-.317.916-.182,1.262.317.792.544-.1.681-.3.771-.891,4.491-1.064,4.808-.247Z" transform="translate(-1364.158 -354.695)" fill="#fff" fill-rule="evenodd"/>
  <path id="Path_2979" data-name="Path 2979" d="M899.956,226.827c-.862.742-1.95-.149-2.676,2.351-.363,1.311.453,2.9.952,4.008,1.542,3.39,2,4.083,2,7.993.952-.025.408-3.934.227-4.578a21.843,21.843,0,0,0-1.5-4.083c-.5-.94-1.815-3.291-.363-3.909.953-.445,3.81-.569,3.4-2.2l-2.9-1.509-.091.173c0-.025.045-3.142-.046-3.712a23.646,23.646,0,0,0-.908-3.538,23.389,23.389,0,0,0-1.361-3.118c-.182-.273-.68-1.509-.908-.817-.272.94-.363.841.136,1.608a18.776,18.776,0,0,1,2.359,6.409c.227,1.212.5,2.846,0,3.935-1.179,2.573.454.2,1.678.99Z" transform="translate(-860.173 -205.29)" fill="#fff" fill-rule="evenodd"/>
  <path id="Path_2980" data-name="Path 2980" d="M1061.2,223.513c.091-.074.046-.05.091-.173l.136-.3a.48.48,0,0,0,.046-.247c.091-.223.045-.124.136-.247.182,0,.136-.025.273.074l.136.1c.227.173.045.272.363.5-.046-.074-.046-.05-.046-.124l-.136-.272a1.109,1.109,0,0,0-.59-.372,4.143,4.143,0,0,0-.408,1.064Z" transform="translate(-1013.479 -213.409)" fill="#fff" fill-rule="evenodd"/>
  <path id="Path_2981" data-name="Path 2981" d="M1871.44,635.582a1.269,1.269,0,0,0,.544.1c.136-.025.046-.025.091-.05.045-.124-.045-.3-.091-.4a1.5,1.5,0,0,0-.272-.4c0,.074.318.643.318.767A5.515,5.515,0,0,1,1871.44,635.582Z" transform="translate(-1763.388 -595.092)" fill="#fff" fill-rule="evenodd"/>
  <path id="Path_2982" data-name="Path 2982" d="M1632.72,714a1.169,1.169,0,0,0-.317-.421,1.6,1.6,0,0,1-.363-.322c0,.174.182.3.272.4a1.5,1.5,0,0,0,.182.174c.136.174.091.1.227.174Z" transform="translate(-1541.814 -667.672)" fill="#fff" fill-rule="evenodd"/>
  <path id="Path_2983" data-name="Path 2983" d="M446.082,740.708c-.045-.173,0-.1-.091-.2l-.091.025c0,.074,0,.049.045.1Z" transform="translate(-443.995 -692.893)" fill="#fff" fill-rule="evenodd"/>
  <path id="Path_2984" data-name="Path 2984" d="M1494.96,757.963c.091.124.182.1.136-.074C1495.006,757.889,1495.051,757.814,1494.96,757.963Z" transform="translate(-1414.941 -708.961)" fill="#fff" fill-rule="evenodd"/>
  <path id="Path_2985" data-name="Path 2985" d="M633.54,101.208c.045-.025.091-.025.091-.1,0-.148,0-.049-.091-.074Z" transform="translate(-617.663 -101.026)" fill="#fff" fill-rule="evenodd"/>
  <path id="Path_2986" data-name="Path 2986" d="M914.38,384.734h.091v-.124h-.091Z" transform="translate(-877.591 -363.494)" fill="#fff" fill-rule="evenodd"/>
  <path id="Path_2987" data-name="Path 2987" d="M422.231,813.794c0-.174.091-.1-.091-.174C422.185,813.768,422.14,813.744,422.231,813.794Z" transform="translate(-422.004 -760.56)" fill="#fff" fill-rule="evenodd"/>
  <path id="Path_2988" data-name="Path 2988" d="M1628.238,567.858l-.045-.148C1628.1,567.834,1628.1,567.834,1628.238,567.858Z" transform="translate(-1538.194 -532.96)" fill="#fff" fill-rule="evenodd"/>
  <path id="Path_2989" data-name="Path 2989" d="M493.42,290.315c0,.025.136.1.091,0C493.465,290.265,493.42,290.24,493.42,290.315Z" transform="translate(-487.976 -276.177)" fill="#fff" fill-rule="evenodd"/>
  <path id="Path_2990" data-name="Path 2990" d="M542.332,473.33c-.182.05-.136,0-.182.124Z" transform="translate(-533.078 -445.608)" fill="#fff" fill-rule="evenodd"/>
  <path id="Path_2991" data-name="Path 2991" d="M1051.9,994.678c.045.049.182-.05.045-.025C1051.948,994.654,1051.857,994.629,1051.9,994.678Z" transform="translate(-1004.862 -928.108)" fill="#fff" fill-rule="evenodd"/>
  <path id="Path_2992" data-name="Path 2992" d="M493.262,283.868c.045.05.182-.05.045-.025C493.307,283.844,493.217,283.819,493.262,283.868Z" transform="translate(-487.818 -270.225)" fill="#fff" fill-rule="evenodd"/>
  <path id="Path_2993" data-name="Path 2993" d="M501.34,267.307l.091-.1C501.295,267.258,501.385,267.109,501.34,267.307Z" transform="translate(-495.306 -254.827)" fill="#fff" fill-rule="evenodd"/>
  <path id="Path_2994" data-name="Path 2994" d="M1053.122,996.881c.045.025.136-.075.045-.025C1053.167,996.857,1053.077,996.807,1053.122,996.881Z" transform="translate(-1005.99 -930.137)" fill="#fff" fill-rule="evenodd"/>
  <path id="Path_2995" data-name="Path 2995" d="M1052.06,999.1c0,.075.091-.025.045-.025C1052.06,999.047,1052.105,999.021,1052.06,999.1Z" transform="translate(-1005.019 -932.179)" fill="#fff" fill-rule="evenodd"/>
  <path id="Path_2996" data-name="Path 2996" d="M497.522,272.807c.045.025.136-.074.045-.025C497.567,272.783,497.477,272.758,497.522,272.807Z" transform="translate(-491.761 -259.98)" fill="#fff" fill-rule="evenodd"/>
  <path id="Path_2997" data-name="Path 2997" d="M1105.106,1012.67h-.046l.046.05Z" transform="translate(-1054.073 -944.788)" fill="#fff" fill-rule="evenodd"/>
  <path id="Path_2998" data-name="Path 2998" d="M1796.555,670.06h-.045l.045.05Z" transform="translate(-1694.037 -627.689)" fill="#fff" fill-rule="evenodd"/>
  <path id="Path_2999" data-name="Path 2999" d="M516.319,282.285v-.025S516.274,282.285,516.319,282.285Z" transform="translate(-509.152 -268.765)" fill="#fff" fill-rule="evenodd"/>
  <path id="Path_3000" data-name="Path 3000" d="M536.06,467.69Z" transform="translate(-527.441 -440.388)" fill="#fff" fill-rule="evenodd"/>
  <path id="Path_3001" data-name="Path 3001" d="M1308.54,293.56Z" transform="translate(-1242.401 -279.224)" fill="#fff" fill-rule="evenodd"/>
  <path id="Path_3002" data-name="Path 3002" d="M492.81,291.23Z" transform="translate(-487.412 -277.067)" fill="#fff" fill-rule="evenodd"/>
  <path id="Path_3003" data-name="Path 3003" d="M493.169,286.25Z" transform="translate(-487.725 -272.458)" fill="#fff" fill-rule="evenodd"/>
  <path id="Path_3004" data-name="Path 3004" d="M532.41,278.6Z" transform="translate(-524.063 -265.378)" fill="#fff" fill-rule="evenodd"/>
  <path id="Path_3005" data-name="Path 3005" d="M420.31,815.645v0Z" transform="translate(-420.31 -762.411)" fill="#fff" fill-rule="evenodd"/>
</svg>
