<svg xmlns="http://www.w3.org/2000/svg" width="23.481" height="16.437" viewBox="0 0 23.481 16.437">
  <path id="Icon_awesome-users" data-name="Icon awesome-users" d="M3.522,9.294A2.348,2.348,0,1,0,1.174,6.946,2.35,2.35,0,0,0,3.522,9.294Zm16.437,0a2.348,2.348,0,1,0-2.348-2.348A2.35,2.35,0,0,0,19.959,9.294Zm1.174,1.174H18.785a2.341,2.341,0,0,0-1.655.682,5.367,5.367,0,0,1,2.755,4.014h2.422a1.173,1.173,0,0,0,1.174-1.174V12.817A2.35,2.35,0,0,0,21.133,10.469Zm-9.393,0A4.109,4.109,0,1,0,7.631,6.359,4.107,4.107,0,0,0,11.741,10.469Zm2.818,1.174h-.3a5.673,5.673,0,0,1-5.026,0h-.3A4.228,4.228,0,0,0,4.7,15.869v1.057a1.762,1.762,0,0,0,1.761,1.761H17.024a1.762,1.762,0,0,0,1.761-1.761V15.869A4.228,4.228,0,0,0,14.558,11.643Zm-8.207-.492A2.341,2.341,0,0,0,4.7,10.469H2.348A2.35,2.35,0,0,0,0,12.817v1.174a1.173,1.173,0,0,0,1.174,1.174H3.592A5.38,5.38,0,0,1,6.351,11.151Z" transform="translate(0 -2.25)" fill="#8a8a8a"/>
</svg>
