<svg xmlns="http://www.w3.org/2000/svg" width="20" height="15.455" viewBox="0 0 20 15.455">
  <g id="readme" opacity="0.5">
    <path id="readme-2" data-name="readme" d="M3.727,5.318H8.273a1.818,1.818,0,0,1,1.818,1.818v8.182a.909.909,0,0,1-.909.909H3.727a.909.909,0,0,1-.909-.909V6.227A.909.909,0,0,1,3.727,5.318Zm9.091,12.727a2.724,2.724,0,0,1-.909-.155v.155a.909.909,0,1,1-1.818,0V17.89a2.724,2.724,0,0,1-.909.155H3.727A2.727,2.727,0,0,1,1,15.318V6.227A2.727,2.727,0,0,1,3.727,3.5H8.273A3.628,3.628,0,0,1,11,4.731,3.628,3.628,0,0,1,13.727,3.5h4.545A2.727,2.727,0,0,1,21,6.227v9.091a2.727,2.727,0,0,1-2.727,2.727ZM11.909,7.136v8.182a.909.909,0,0,0,.909.909h5.455a.909.909,0,0,0,.909-.909V6.227a.909.909,0,0,0-.909-.909H13.727A1.818,1.818,0,0,0,11.909,7.136Zm-7.273,0H8.273V8.955H4.636Zm9.091,0h3.636V8.955H13.727Zm3.636,2.727H13.727v1.818h3.636Zm-12.727,0H8.273v1.818H4.636Zm12.727,2.727H13.727v1.818h3.636Zm-12.727,0H8.273v1.818H4.636Z" transform="translate(-1 -3.5)" fill-rule="evenodd"/>
  </g>
</svg>
