<svg id="icon" xmlns="http://www.w3.org/2000/svg" width="20" height="20" viewBox="0 0 20 20">
  <rect id="bg" width="20" height="20" fill="none"/>
  <path id="path" d="M10,10A4,4,0,1,0,6,6,4,4,0,0,0,10,10Zm0-1.455A2.545,2.545,0,1,1,12.545,6,2.545,2.545,0,0,1,10,8.545ZM2.43,13.7A4.684,4.684,0,0,0,2.136,14.9q-.081.557-.125,1.119L2,16.13l0,.052A1.818,1.818,0,0,0,3.816,18H16.184A1.818,1.818,0,0,0,18,16.182l0-.052-.008-.109q-.047-.561-.125-1.119A4.684,4.684,0,0,0,17.57,13.7c-.559-1.213-4.673-2.969-7.57-2.969S2.989,12.483,2.43,13.7Zm1.4.554a3.743,3.743,0,0,1,.427-.312,10.57,10.57,0,0,1,1.523-.787A11.219,11.219,0,0,1,10,12.182a11.221,11.221,0,0,1,4.224.969,10.57,10.57,0,0,1,1.523.787,3.776,3.776,0,0,1,.427.312,1.1,1.1,0,0,1,.086.083,4.543,4.543,0,0,1,.164.78c.036.244.067.507.092.771.013.136.023.246.028.317a.364.364,0,0,1-.361.344H3.816a.364.364,0,0,1-.361-.344c.005-.071.015-.181.028-.316q.037-.387.092-.771a4.543,4.543,0,0,1,.164-.78A1.034,1.034,0,0,1,3.825,14.25Z" transform="translate(0 0.267)" fill="#3497fd"/>
</svg>
