<svg xmlns="http://www.w3.org/2000/svg" width="14.796" height="14.822" viewBox="0 0 14.796 14.822">
  <path id="Icon_feather-phone-call" data-name="Icon feather-phone-call" d="M11.354,4.031a3.164,3.164,0,0,1,2.5,2.5m-2.5-5.03a5.7,5.7,0,0,1,5.03,5.024m-.633,5.049v1.9a1.266,1.266,0,0,1-1.379,1.266,12.522,12.522,0,0,1-5.461-1.943A12.339,12.339,0,0,1,5.116,9,12.522,12.522,0,0,1,3.173,3.512,1.266,1.266,0,0,1,4.432,2.133h1.9A1.266,1.266,0,0,1,7.6,3.221,8.124,8.124,0,0,0,8.039,5a1.266,1.266,0,0,1-.285,1.335l-.8.8a10.124,10.124,0,0,0,3.8,3.8l.8-.8a1.266,1.266,0,0,1,1.335-.285,8.124,8.124,0,0,0,1.778.443A1.266,1.266,0,0,1,15.752,11.573Z" transform="translate(-2.417 -0.672)" fill="none" stroke="#000" stroke-linecap="round" stroke-linejoin="round" stroke-width="1.5" opacity="0.5"/>
</svg>
