<?xml version="1.0" encoding="utf-8"?>
<!-- Generator: Adobe Illustrator 24.2.3, SVG Export Plug-In . SVG Version: 6.00 Build 0)  -->
<svg version="1.1" id="Calque_1" xmlns="http://www.w3.org/2000/svg" xmlns:xlink="http://www.w3.org/1999/xlink" x="0px" y="0px"
	 viewBox="0 0 1920 1080" style="enable-background:new 0 0 1920 1080;" xml:space="preserve">
<path id="XMLID_55_" d="M310.1,616.5h48.8L215.2,459.9L71.4,616.5h48.8l24.9-28.6h139.1L310.1,616.5z M215.2,509.6l45.2,50.7H170
	L215.2,509.6z M773.6,492.1h125.3c24.9,0,32.3,7.4,32.3,24c0,13.8-11.1,23-32.3,23H773.6V492.1z M1123.7,464.5h-41.5v152h41.5V464.5
	z M1466.5,464.5v94l-170.5-94h-41.5v152h37.8V504.1l211.9,117V464.5C1504.3,464.5,1466.5,464.5,1466.5,464.5z M732.1,464.5v152h41.5
	v-50.7h132.7c49.8,0,68.2-20.3,68.2-51.6c0-29.5-21.2-49.8-66.3-49.8C908.1,464.5,732.1,464.5,732.1,464.5z M487.9,589.8V464.5
	h-41.5v152h187.1l12-27.6H487.9V589.8z M1676.6,589.8v-35.9h166.8v-27.6h-166.8v-34.1h166.8v-27.6h-208.2v152h205.5l7.4-27.6h-171.4
	V589.8z"/>
</svg>
