<svg xmlns="http://www.w3.org/2000/svg" width="40.144" height="32.604" viewBox="0 0 40.144 32.604">
  <path id="Icon_awesome-twitter" data-name="Icon awesome-twitter" d="M36.017,11.506c.025.357.025.713.025,1.07,0,10.877-8.278,23.409-23.409,23.409A23.25,23.25,0,0,1,0,32.292a17.019,17.019,0,0,0,1.987.1A16.477,16.477,0,0,0,12.2,28.878a8.242,8.242,0,0,1-7.693-5.706,10.376,10.376,0,0,0,1.554.127,8.7,8.7,0,0,0,2.165-.28,8.229,8.229,0,0,1-6.6-8.075v-.1a8.286,8.286,0,0,0,3.719,1.044,8.24,8.24,0,0,1-2.547-11,23.386,23.386,0,0,0,16.964,8.61,9.288,9.288,0,0,1-.2-1.885A8.235,8.235,0,0,1,33.8,5.979a16.2,16.2,0,0,0,5.222-1.987,8.205,8.205,0,0,1-3.617,4.534,16.493,16.493,0,0,0,4.738-1.274,17.686,17.686,0,0,1-4.126,4.254Z" transform="translate(0 -3.381)"/>
</svg>
