<svg xmlns="http://www.w3.org/2000/svg" width="35.145" height="35.138" viewBox="0 0 35.145 35.138">
  <path id="Icon_awesome-instagram" data-name="Icon awesome-instagram" d="M17.571,10.8a9.009,9.009,0,1,0,9.009,9.009A8.995,8.995,0,0,0,17.571,10.8Zm0,14.866a5.857,5.857,0,1,1,5.857-5.857,5.868,5.868,0,0,1-5.857,5.857ZM29.05,10.429a2.1,2.1,0,1,1-2.1-2.1A2.1,2.1,0,0,1,29.05,10.429Zm5.967,2.133c-.133-2.815-.776-5.308-2.838-7.362s-4.548-2.7-7.362-2.838c-2.9-.165-11.6-.165-14.5,0-2.807.133-5.3.776-7.362,2.83S.259,9.739.118,12.554c-.165,2.9-.165,11.6,0,14.5.133,2.815.776,5.308,2.838,7.362s4.548,2.7,7.362,2.838c2.9.165,11.6.165,14.5,0,2.815-.133,5.308-.776,7.362-2.838s2.7-4.548,2.838-7.362c.165-2.9.165-11.588,0-14.49Zm-3.748,17.6a5.93,5.93,0,0,1-3.34,3.34c-2.313.917-7.8.706-10.357.706s-8.052.2-10.357-.706a5.93,5.93,0,0,1-3.34-3.34c-.917-2.313-.706-7.8-.706-10.357s-.2-8.052.706-10.357a5.93,5.93,0,0,1,3.34-3.34c2.313-.917,7.8-.706,10.357-.706s8.052-.2,10.357.706a5.93,5.93,0,0,1,3.34,3.34c.917,2.313.706,7.8.706,10.357S32.186,27.859,31.269,30.164Z" transform="translate(0.005 -2.238)"/>
</svg>
