<svg xmlns="http://www.w3.org/2000/svg" width="38.889" height="38.89" viewBox="0 0 38.889 38.89">
  <path id="Icon_awesome-telegram" data-name="Icon awesome-telegram" d="M19.445.563A19.445,19.445,0,1,0,38.889,20.007,19.441,19.441,0,0,0,19.445.563Zm9.55,13.321L25.8,28.922c-.235,1.066-.87,1.325-1.756.823l-4.861-3.583L16.842,28.42a1.227,1.227,0,0,1-.98.478l.345-4.947,9.009-8.139c.392-.345-.086-.541-.6-.2l-11.134,7.01-4.8-1.5c-1.043-.329-1.066-1.043.22-1.545l18.747-7.229c.87-.314,1.631.212,1.349,1.529Z" transform="translate(0 -0.563)"/>
</svg>
