<svg xmlns="http://www.w3.org/2000/svg" width="35.126" height="35.126" viewBox="0 0 35.126 35.126">
  <path id="Icon_awesome-whatsapp" data-name="Icon awesome-whatsapp" d="M29.865,7.354A17.412,17.412,0,0,0,2.47,28.359L0,37.376l9.228-2.423a17.353,17.353,0,0,0,8.319,2.117h.008A17.574,17.574,0,0,0,35.126,19.664a17.475,17.475,0,0,0-5.261-12.31ZM17.555,34.138a14.442,14.442,0,0,1-7.37-2.015l-.525-.314L4.187,33.244,5.645,27.9,5.3,27.356a14.5,14.5,0,1,1,26.885-7.692A14.629,14.629,0,0,1,17.555,34.138ZM25.49,23.3c-.431-.22-2.572-1.27-2.972-1.411s-.69-.22-.98.22-1.121,1.411-1.38,1.709-.51.329-.941.11c-2.556-1.278-4.234-2.282-5.92-5.175-.447-.768.447-.714,1.278-2.376a.806.806,0,0,0-.039-.761c-.11-.22-.98-2.36-1.341-3.23-.353-.847-.713-.729-.98-.745-.251-.016-.541-.016-.831-.016a1.611,1.611,0,0,0-1.16.541A4.887,4.887,0,0,0,8.7,15.8a8.521,8.521,0,0,0,1.772,4.5c.22.29,3.066,4.681,7.433,6.57,2.76,1.192,3.842,1.294,5.222,1.09a4.455,4.455,0,0,0,2.932-2.07,3.638,3.638,0,0,0,.251-2.07C26.211,23.624,25.921,23.514,25.49,23.3Z" transform="translate(0 -2.25)"/>
</svg>
