<svg xmlns="http://www.w3.org/2000/svg" width="22.905" height="20.616" viewBox="0 0 22.905 20.616">
  <path id="Icon_awesome-instagram" data-name="Icon awesome-instagram" d="M11.45,7.26a5.593,5.593,0,0,0-5.871,5.286,5.593,5.593,0,0,0,5.871,5.286,5.593,5.593,0,0,0,5.871-5.286A5.593,5.593,0,0,0,11.45,7.26Zm0,8.722a3.649,3.649,0,0,1-3.817-3.436A3.645,3.645,0,0,1,11.45,9.109a3.645,3.645,0,0,1,3.817,3.436,3.649,3.649,0,0,1-3.817,3.436ZM18.93,7.044a1.377,1.377,0,0,1-2.739,0,1.377,1.377,0,0,1,2.739,0ZM22.819,8.3a5.778,5.778,0,0,0-1.85-4.32,7.259,7.259,0,0,0-4.8-1.665c-1.891-.1-7.557-.1-9.448,0a7.25,7.25,0,0,0-4.8,1.661,5.8,5.8,0,0,0-1.85,4.32c-.107,1.7-.107,6.8,0,8.506a5.778,5.778,0,0,0,1.85,4.32,7.268,7.268,0,0,0,4.8,1.665c1.891.1,7.557.1,9.448,0a7.211,7.211,0,0,0,4.8-1.665,5.816,5.816,0,0,0,1.85-4.32c.107-1.7.107-6.8,0-8.5ZM20.376,18.623a3.694,3.694,0,0,1-2.177,1.96c-1.507.538-5.084.414-6.75.414s-5.248.12-6.75-.414a3.694,3.694,0,0,1-2.177-1.96c-.6-1.357-.46-4.577-.46-6.077s-.133-4.725.46-6.077A3.694,3.694,0,0,1,4.7,4.509C6.207,3.971,9.784,4.1,11.45,4.1s5.248-.12,6.75.414a3.694,3.694,0,0,1,2.177,1.96c.6,1.357.46,4.577.46,6.077S20.974,17.271,20.376,18.623Z" transform="translate(0.005 -2.238)" fill="#333b3d"/>
</svg>
