<svg xmlns="http://www.w3.org/2000/svg" width="18.746" height="18.78" viewBox="0 0 18.746 18.78">
  <path id="Icon_feather-phone-call" data-name="Icon feather-phone-call" d="M14.127,4.888a4.235,4.235,0,0,1,3.346,3.346M14.127,1.5a7.623,7.623,0,0,1,6.734,6.725m-.847,6.759v2.541a1.694,1.694,0,0,1-1.847,1.694,16.763,16.763,0,0,1-7.31-2.6,16.517,16.517,0,0,1-5.082-5.082,16.763,16.763,0,0,1-2.6-7.344A1.694,1.694,0,0,1,4.86,2.347H7.4A1.694,1.694,0,0,1,9.1,3.8a10.876,10.876,0,0,0,.593,2.38,1.694,1.694,0,0,1-.381,1.787L8.231,9.047a13.552,13.552,0,0,0,5.082,5.082l1.076-1.076a1.694,1.694,0,0,1,1.787-.381,10.876,10.876,0,0,0,2.38.593A1.694,1.694,0,0,1,20.014,14.985Z" transform="translate(-2.667 -0.948)" fill="none" stroke="#000" stroke-linecap="round" stroke-linejoin="round" stroke-width="1"/>
</svg>
