<svg xmlns="http://www.w3.org/2000/svg" width="22.892" height="20.609" viewBox="0 0 22.892 20.609">
  <path id="Icon_awesome-whatsapp" data-name="Icon awesome-whatsapp" d="M19.463,5.245A11.919,11.919,0,0,0,11.441,2.25C5.186,2.25.1,6.832.1,12.463A9.451,9.451,0,0,0,1.61,17.569L0,22.86l6.014-1.422a12.312,12.312,0,0,0,5.421,1.242h.005c6.249,0,11.451-4.582,11.451-10.213a9.788,9.788,0,0,0-3.429-7.223ZM11.441,20.96a10.217,10.217,0,0,1-4.8-1.182L6.3,19.593l-3.567.842.95-3.133-.225-.322a7.85,7.85,0,0,1-1.441-4.518c0-4.679,4.231-8.488,9.433-8.488a9.893,9.893,0,0,1,6.663,2.489,8.139,8.139,0,0,1,2.867,6c0,4.683-4.338,8.492-9.535,8.492ZM16.612,14.6c-.281-.129-1.676-.745-1.937-.828s-.45-.129-.639.129-.731.828-.9,1-.332.193-.613.064a7.536,7.536,0,0,1-3.858-3.036c-.291-.451.291-.419.833-1.394a.432.432,0,0,0-.026-.446C9.4,9.965,8.835,8.709,8.6,8.2s-.465-.428-.639-.437-.353-.009-.542-.009a1.106,1.106,0,0,0-.756.317,2.757,2.757,0,0,0-.991,2.13A4.755,4.755,0,0,0,6.827,12.84,12.243,12.243,0,0,0,11.671,16.7a6.075,6.075,0,0,0,3.4.639,2.917,2.917,0,0,0,1.911-1.214,1.937,1.937,0,0,0,.164-1.214C17.082,14.791,16.893,14.726,16.612,14.6Z" transform="translate(0 -2.25)" fill="#333b3d"/>
</svg>
