<svg xmlns="http://www.w3.org/2000/svg" width="42.946" height="42.946" viewBox="0 0 42.946 42.946">
  <path id="Icon_material-collections-bookmark" data-name="Icon material-collections-bookmark" d="M7.295,11.589H3V41.651a4.307,4.307,0,0,0,4.295,4.295H37.357V41.651H7.295ZM41.651,3H15.884a4.307,4.307,0,0,0-4.295,4.295V33.062a4.307,4.307,0,0,0,4.295,4.295H41.651a4.307,4.307,0,0,0,4.295-4.295V7.295A4.307,4.307,0,0,0,41.651,3Zm0,21.473-5.368-3.221-5.368,3.221V7.295H41.651Z" transform="translate(-3 -3)" fill="#e48325" opacity="0.7"/>
</svg>
