<svg xmlns="http://www.w3.org/2000/svg" width="56.255" height="39.379" viewBox="0 0 56.255 39.379">
  <path id="Icon_awesome-users" data-name="Icon awesome-users" d="M8.438,19.127A5.626,5.626,0,1,0,2.813,13.5,5.631,5.631,0,0,0,8.438,19.127Zm39.379,0A5.626,5.626,0,1,0,42.191,13.5,5.631,5.631,0,0,0,47.817,19.127Zm2.813,2.813H45a5.609,5.609,0,0,0-3.964,1.635,12.857,12.857,0,0,1,6.6,9.616h5.8a2.81,2.81,0,0,0,2.813-2.813V27.565A5.631,5.631,0,0,0,50.63,21.939Zm-22.5,0a9.845,9.845,0,1,0-9.845-9.845A9.84,9.84,0,0,0,28.128,21.939Zm6.751,2.813h-.73a13.592,13.592,0,0,1-12.042,0h-.73A10.129,10.129,0,0,0,11.251,34.878V37.41a4.22,4.22,0,0,0,4.219,4.219H40.785A4.22,4.22,0,0,0,45,37.41V34.878A10.129,10.129,0,0,0,34.878,24.752ZM15.215,23.574a5.609,5.609,0,0,0-3.964-1.635H5.626A5.631,5.631,0,0,0,0,27.565v2.813A2.81,2.81,0,0,0,2.813,33.19H8.605A12.89,12.89,0,0,1,15.215,23.574Z" transform="translate(0 -2.25)" fill="#e48325" opacity="0.7"/>
</svg>
