<svg xmlns="http://www.w3.org/2000/svg" width="57.203" height="40.042" viewBox="0 0 57.203 40.042">
  <path id="Icon_awesome-shuttle-van" data-name="Icon awesome-shuttle-van" d="M56.209,18.218,44.189,3.794a4.291,4.291,0,0,0-3.3-1.544H2.86A2.861,2.861,0,0,0,0,5.11V30.852a2.861,2.861,0,0,0,2.86,2.86H5.72a8.581,8.581,0,0,0,17.161,0H34.322a8.581,8.581,0,0,0,17.161,0h2.86a2.861,2.861,0,0,0,2.86-2.86V20.964a4.3,4.3,0,0,0-.994-2.747ZM5.72,16.551V7.97H14.3v8.581ZM14.3,38a4.29,4.29,0,1,1,4.29-4.29A4.29,4.29,0,0,1,14.3,38ZM28.6,16.551H20.021V7.97H28.6ZM42.9,38a4.29,4.29,0,1,1,4.29-4.29A4.29,4.29,0,0,1,42.9,38ZM34.322,16.551V7.97h5.9l7.15,8.581Z" transform="translate(0 -2.25)" fill="#e48325" opacity="0.7"/>
</svg>
